G04 #@! TF.GenerationSoftware,KiCad,Pcbnew,5.0.0*
G04 #@! TF.CreationDate,2018-09-21T06:24:59-04:00*
G04 #@! TF.ProjectId,v1,76312E6B696361645F70636200000000,rev?*
G04 #@! TF.SameCoordinates,Original*
G04 #@! TF.FileFunction,Copper,L2,Bot,Signal*
G04 #@! TF.FilePolarity,Positive*
%FSLAX46Y46*%
G04 Gerber Fmt 4.6, Leading zero omitted, Abs format (unit mm)*
G04 Created by KiCad (PCBNEW 5.0.0) date Fri Sep 21 06:24:59 2018*
%MOMM*%
%LPD*%
G01*
G04 APERTURE LIST*
G04 #@! TA.AperFunction,ComponentPad*
%ADD10R,1.700000X1.700000*%
G04 #@! TD*
G04 #@! TA.AperFunction,ComponentPad*
%ADD11O,1.700000X1.700000*%
G04 #@! TD*
G04 #@! TA.AperFunction,BGAPad,CuDef*
%ADD12C,8.000000*%
G04 #@! TD*
G04 #@! TA.AperFunction,SMDPad,CuDef*
%ADD13C,2.540000*%
G04 #@! TD*
G04 #@! TA.AperFunction,Conductor*
%ADD14C,0.100000*%
G04 #@! TD*
G04 #@! TA.AperFunction,ViaPad*
%ADD15C,0.508000*%
G04 #@! TD*
G04 #@! TA.AperFunction,Conductor*
%ADD16C,0.152400*%
G04 #@! TD*
G04 #@! TA.AperFunction,Conductor*
%ADD17C,0.304800*%
G04 #@! TD*
G04 #@! TA.AperFunction,Conductor*
%ADD18C,0.254000*%
G04 #@! TD*
G04 APERTURE END LIST*
D10*
G04 #@! TO.P,J1,1*
G04 #@! TO.N,MISO*
X188849000Y-138620500D03*
D11*
G04 #@! TO.P,J1,2*
G04 #@! TO.N,+3V3*
X191389000Y-138620500D03*
G04 #@! TO.P,J1,3*
G04 #@! TO.N,SCK*
X193929000Y-138620500D03*
G04 #@! TO.P,J1,4*
G04 #@! TO.N,CP6*
X196469000Y-138620500D03*
G04 #@! TO.P,J1,5*
G04 #@! TO.N,RESET*
X199009000Y-138620500D03*
G04 #@! TO.P,J1,6*
G04 #@! TO.N,GND*
X201549000Y-138620500D03*
G04 #@! TD*
D12*
G04 #@! TO.P,BT1,2*
G04 #@! TO.N,GND*
X195199000Y-127762000D03*
D13*
G04 #@! TO.P,BT1,1*
G04 #@! TO.N,Net-(BT1-Pad1)*
X185106908Y-133128060D03*
D14*
G04 #@! TD*
G04 #@! TO.N,Net-(BT1-Pad1)*
G04 #@! TO.C,BT1*
G36*
X185178022Y-135966976D02*
X182793107Y-131481602D01*
X185035794Y-130289144D01*
X187420709Y-134774518D01*
X185178022Y-135966976D01*
X185178022Y-135966976D01*
G37*
D13*
G04 #@! TO.P,BT1,1*
G04 #@! TO.N,Net-(BT1-Pad1)*
X205291092Y-122395940D03*
D14*
G04 #@! TD*
G04 #@! TO.N,Net-(BT1-Pad1)*
G04 #@! TO.C,BT1*
G36*
X205362206Y-125234856D02*
X202977291Y-120749482D01*
X205219978Y-119557024D01*
X207604893Y-124042398D01*
X205362206Y-125234856D01*
X205362206Y-125234856D01*
G37*
D15*
G04 #@! TO.N,GND*
X196621400Y-134624584D03*
X199898000Y-125095000D03*
X199390000Y-130175000D03*
X191820800Y-121589800D03*
X198247000Y-126238000D03*
X190500000Y-122428000D03*
X198513700Y-120980200D03*
G04 #@! TO.N,Net-(BT1-Pad1)*
X195326000Y-119062500D03*
X195389500Y-116205000D03*
X198056500Y-119126000D03*
G04 #@! TO.N,+3V3*
X199961500Y-126873000D03*
X190754000Y-131876800D03*
X196138800Y-135077200D03*
X191566800Y-120446800D03*
X199923400Y-135331196D03*
G04 #@! TO.N,Net-(RBOT1-Pad1)*
X193624200Y-116078000D03*
X197688200Y-115747800D03*
G04 #@! TO.N,Net-(D10-Pad2)*
X203898500Y-130492496D03*
X187262359Y-131402566D03*
X183896000Y-124269500D03*
X191008000Y-125031500D03*
G04 #@! TO.N,Net-(D1-Pad2)*
X184835800Y-121767600D03*
X188316788Y-131140200D03*
X188315600Y-128295400D03*
X195854481Y-135673276D03*
G04 #@! TO.N,Net-(D10-Pad1)*
X205486000Y-132524500D03*
X201168000Y-118173500D03*
X190055500Y-127762000D03*
X207086200Y-125971300D03*
G04 #@! TO.N,Net-(D1-Pad1)*
X189261000Y-130175000D03*
X204876402Y-125958602D03*
X206971900Y-132537200D03*
G04 #@! TO.N,Net-(D11-Pad1)*
X205137000Y-131946066D03*
X187807600Y-131775200D03*
X203923191Y-129273009D03*
G04 #@! TO.N,Net-(J3-Pad1)*
X189230000Y-121094500D03*
X201739500Y-121158000D03*
G04 #@! TO.N,Net-(D12-Pad1)*
X199847200Y-128117600D03*
X202755500Y-119443500D03*
X183261000Y-134239000D03*
X185229500Y-124282222D03*
X185242200Y-123012206D03*
G04 #@! TD*
D16*
G04 #@! TO.N,GND*
X199898000Y-125095000D02*
X199390000Y-125095000D01*
X198500999Y-125984001D02*
X198247000Y-126238000D01*
X199390000Y-125095000D02*
X198500999Y-125984001D01*
X191820800Y-121589800D02*
X191338200Y-121589800D01*
X191338200Y-121589800D02*
X190500000Y-122428000D01*
X198513700Y-120980200D02*
X199898000Y-122364500D01*
X199898000Y-122364500D02*
X199898000Y-125095000D01*
D17*
G04 #@! TO.N,Net-(BT1-Pad1)*
X195326000Y-116268500D02*
X195389500Y-116205000D01*
X195326000Y-119062500D02*
X195326000Y-116268500D01*
X183324500Y-125031500D02*
X184975500Y-126682500D01*
X195326000Y-119062500D02*
X186713874Y-119062500D01*
X184975500Y-126682500D02*
X184975500Y-132996652D01*
X186713874Y-119062500D02*
X183324500Y-122451874D01*
X183324500Y-122451874D02*
X183324500Y-125031500D01*
X184975500Y-132996652D02*
X185106908Y-133128060D01*
X205291092Y-122395940D02*
X205291092Y-120518592D01*
X195326000Y-119062500D02*
X197993000Y-119062500D01*
X205291092Y-120518592D02*
X202387199Y-117614699D01*
X202387199Y-117614699D02*
X199567801Y-117614699D01*
X198310499Y-118872001D02*
X198056500Y-119126000D01*
X199567801Y-117614699D02*
X198310499Y-118872001D01*
X197993000Y-119062500D02*
X198056500Y-119126000D01*
D16*
G04 #@! TO.N,+3V3*
X191007999Y-132130799D02*
X190754000Y-131876800D01*
X191389000Y-138620500D02*
X191389000Y-132511800D01*
X191389000Y-132511800D02*
X191007999Y-132130799D01*
X191389000Y-138620500D02*
X192467601Y-137541899D01*
X196392799Y-135842251D02*
X196392799Y-135331199D01*
X196392799Y-135331199D02*
X196138800Y-135077200D01*
X194693151Y-137541899D02*
X196392799Y-135842251D01*
X192467601Y-137541899D02*
X194693151Y-137541899D01*
X196392802Y-135331196D02*
X199564190Y-135331196D01*
X196392799Y-135331199D02*
X196392802Y-135331196D01*
X199564190Y-135331196D02*
X199923400Y-135331196D01*
X199961500Y-126873000D02*
X201803000Y-125031500D01*
X199466200Y-120243600D02*
X192129210Y-120243600D01*
X201803000Y-125031500D02*
X201803000Y-122580400D01*
X201803000Y-122580400D02*
X199466200Y-120243600D01*
X192129210Y-120243600D02*
X191926010Y-120446800D01*
X191926010Y-120446800D02*
X191566800Y-120446800D01*
G04 #@! TO.N,Net-(RBOT1-Pad1)*
X193624200Y-116078000D02*
X194056000Y-115646200D01*
X194056000Y-115646200D02*
X197586600Y-115646200D01*
X197586600Y-115646200D02*
X197688200Y-115747800D01*
G04 #@! TO.N,Net-(D10-Pad2)*
X186690000Y-125285500D02*
X186690000Y-129540000D01*
X186690000Y-129413000D02*
X186690000Y-129540000D01*
X186715411Y-129387589D02*
X186690000Y-129413000D01*
X190245989Y-129387589D02*
X186715411Y-129387589D01*
X193890900Y-133032500D02*
X190245989Y-129387589D01*
X203898500Y-130492496D02*
X201358496Y-133032500D01*
X201358496Y-133032500D02*
X193890900Y-133032500D01*
X187008360Y-131148567D02*
X187262359Y-131402566D01*
X186690000Y-129540000D02*
X186690000Y-130830207D01*
X186690000Y-130830207D02*
X187008360Y-131148567D01*
X184365888Y-123799612D02*
X184149999Y-124015501D01*
X184149999Y-124015501D02*
X183896000Y-124269500D01*
X186690000Y-125015750D02*
X185473862Y-123799612D01*
X186690000Y-125285500D02*
X186690000Y-125015750D01*
X185473862Y-123799612D02*
X184365888Y-123799612D01*
X186690001Y-125285499D02*
X186690000Y-125285500D01*
X190754001Y-125285499D02*
X186690001Y-125285499D01*
X191008000Y-125031500D02*
X190754001Y-125285499D01*
G04 #@! TO.N,Net-(D1-Pad2)*
X188316788Y-131140200D02*
X190703934Y-131140200D01*
X190703934Y-131140200D02*
X195237010Y-135673276D01*
X195237010Y-135673276D02*
X195495271Y-135673276D01*
X195495271Y-135673276D02*
X195854481Y-135673276D01*
X186639200Y-124510800D02*
X185623208Y-123494808D01*
X191201550Y-124510800D02*
X186639200Y-124510800D01*
X185623208Y-123494808D02*
X185035958Y-123494808D01*
X184581801Y-122021599D02*
X184835800Y-121767600D01*
X191490601Y-124799851D02*
X191201550Y-124510800D01*
X191490601Y-125479609D02*
X191490601Y-124799851D01*
X185035958Y-123494808D02*
X184581801Y-123040651D01*
X188315600Y-128295400D02*
X188674810Y-128295400D01*
X188674810Y-128295400D02*
X191490601Y-125479609D01*
X184581801Y-123040651D02*
X184581801Y-122021599D01*
G04 #@! TO.N,Net-(D10-Pad1)*
X204164908Y-128790408D02*
X205739999Y-130365499D01*
X205739999Y-130365499D02*
X205739999Y-132270501D01*
X205739999Y-132270501D02*
X205486000Y-132524500D01*
X201527210Y-118173500D02*
X201168000Y-118173500D01*
X202199750Y-118173500D02*
X201527210Y-118173500D01*
X203238101Y-119211851D02*
X202199750Y-118173500D01*
X202748681Y-122992681D02*
X202748681Y-120164569D01*
X202748681Y-120164569D02*
X203238101Y-119675149D01*
X203238101Y-119675149D02*
X203238101Y-119211851D01*
X204825600Y-125069600D02*
X202748681Y-122992681D01*
X203936600Y-125958600D02*
X204825600Y-125069600D01*
X203936600Y-128790408D02*
X203936600Y-125958600D01*
X203936600Y-128790408D02*
X204164908Y-128790408D01*
X206726990Y-125971300D02*
X207086200Y-125971300D01*
X205727300Y-125971300D02*
X206726990Y-125971300D01*
X204825600Y-125069600D02*
X205727300Y-125971300D01*
X194005200Y-132715000D02*
X199766950Y-132715000D01*
X199766950Y-132715000D02*
X203691542Y-128790408D01*
X190309499Y-128015999D02*
X190309499Y-129019299D01*
X203691542Y-128790408D02*
X203936600Y-128790408D01*
X190055500Y-127762000D02*
X190309499Y-128015999D01*
X190309499Y-129019299D02*
X194005200Y-132715000D01*
G04 #@! TO.N,Net-(D1-Pad1)*
X204876402Y-125958602D02*
X206971900Y-128054100D01*
X206971900Y-128054100D02*
X206971900Y-132177990D01*
X206717901Y-132791199D02*
X206971900Y-132537200D01*
X193662300Y-133667500D02*
X205841600Y-133667500D01*
X205841600Y-133667500D02*
X206717901Y-132791199D01*
X190169800Y-130175000D02*
X193662300Y-133667500D01*
X206971900Y-132177990D02*
X206971900Y-132537200D01*
X189261000Y-130175000D02*
X190169800Y-130175000D01*
G04 #@! TO.N,Net-(D11-Pad1)*
X205137000Y-131946066D02*
X203733066Y-133350000D01*
X189029351Y-129692399D02*
X187807600Y-130914150D01*
X187807600Y-130914150D02*
X187807600Y-131415990D01*
X187807600Y-131415990D02*
X187807600Y-131775200D01*
X190118999Y-129692399D02*
X189029351Y-129692399D01*
X203733066Y-133350000D02*
X193776600Y-133350000D01*
X193776600Y-133350000D02*
X190118999Y-129692399D01*
X205137000Y-130486818D02*
X205137000Y-131946066D01*
X203923191Y-129273009D02*
X205137000Y-130486818D01*
G04 #@! TO.N,Net-(J3-Pad1)*
X190715899Y-119608601D02*
X189230000Y-121094500D01*
X199697101Y-119608601D02*
X190715899Y-119608601D01*
X201739500Y-121158000D02*
X201246500Y-121158000D01*
X201246500Y-121158000D02*
X199697101Y-119608601D01*
G04 #@! TO.N,Net-(D12-Pad1)*
X202222101Y-125742699D02*
X200101199Y-127863601D01*
X200101199Y-127863601D02*
X199847200Y-128117600D01*
X202755500Y-119443500D02*
X202222101Y-119976899D01*
X202222101Y-119976899D02*
X202222101Y-122885200D01*
X202222101Y-122885200D02*
X202222101Y-125742699D01*
X185229500Y-124641432D02*
X185229500Y-124282222D01*
X186182000Y-125593932D02*
X185229500Y-124641432D01*
X183261000Y-134598210D02*
X184933790Y-136271000D01*
X183261000Y-134239000D02*
X183261000Y-134598210D01*
X184933790Y-136271000D02*
X186372500Y-136271000D01*
X186372500Y-136271000D02*
X187769500Y-134874000D01*
X187769500Y-134874000D02*
X187769500Y-132667250D01*
X186182000Y-131079750D02*
X186182000Y-125593932D01*
X187769500Y-132667250D02*
X186182000Y-131079750D01*
X191099950Y-119938800D02*
X188026544Y-123012206D01*
X188026544Y-123012206D02*
X185601410Y-123012206D01*
X199592467Y-119938800D02*
X191099950Y-119938800D01*
X201294267Y-121640600D02*
X199592467Y-119938800D01*
X185601410Y-123012206D02*
X185242200Y-123012206D01*
X202209400Y-121640600D02*
X201294267Y-121640600D01*
G04 #@! TD*
D18*
G04 #@! TO.N,GND*
G36*
X207251300Y-135562042D02*
X202589077Y-135610607D01*
X202543151Y-135619716D01*
X202501636Y-135646771D01*
X202473634Y-135687654D01*
X202463408Y-135736140D01*
X202443534Y-137465151D01*
X202315924Y-137348855D01*
X201905890Y-137179024D01*
X201676000Y-137300345D01*
X201676000Y-138493500D01*
X201696000Y-138493500D01*
X201696000Y-138747500D01*
X201676000Y-138747500D01*
X201676000Y-138767500D01*
X201422000Y-138767500D01*
X201422000Y-138747500D01*
X201402000Y-138747500D01*
X201402000Y-138493500D01*
X201422000Y-138493500D01*
X201422000Y-137300345D01*
X201192110Y-137179024D01*
X200782076Y-137348855D01*
X200353817Y-137739142D01*
X200292843Y-137868978D01*
X200079625Y-137549875D01*
X199588418Y-137221661D01*
X199155256Y-137135500D01*
X198862744Y-137135500D01*
X198429582Y-137221661D01*
X197938375Y-137549875D01*
X197739000Y-137848261D01*
X197539625Y-137549875D01*
X197048418Y-137221661D01*
X196615256Y-137135500D01*
X196322744Y-137135500D01*
X196051356Y-137189482D01*
X196846168Y-136394671D01*
X196905544Y-136354997D01*
X196945219Y-136295620D01*
X196945223Y-136295616D01*
X197062734Y-136119749D01*
X197062734Y-136119748D01*
X197062735Y-136119747D01*
X197078121Y-136042396D01*
X199377364Y-136042396D01*
X199419822Y-136084854D01*
X199746567Y-136220196D01*
X200100233Y-136220196D01*
X200426978Y-136084854D01*
X200677058Y-135834774D01*
X200812400Y-135508029D01*
X200812400Y-135154363D01*
X200677058Y-134827618D01*
X200426978Y-134577538D01*
X200100233Y-134442196D01*
X199746567Y-134442196D01*
X199419822Y-134577538D01*
X199377364Y-134619996D01*
X196911667Y-134619996D01*
X196892458Y-134573622D01*
X196697536Y-134378700D01*
X205771559Y-134378700D01*
X205841600Y-134392632D01*
X205911641Y-134378700D01*
X205911646Y-134378700D01*
X206119096Y-134337436D01*
X206354346Y-134180246D01*
X206394024Y-134120864D01*
X207088689Y-133426200D01*
X207148733Y-133426200D01*
X207251300Y-133383715D01*
X207251300Y-135562042D01*
X207251300Y-135562042D01*
G37*
X207251300Y-135562042D02*
X202589077Y-135610607D01*
X202543151Y-135619716D01*
X202501636Y-135646771D01*
X202473634Y-135687654D01*
X202463408Y-135736140D01*
X202443534Y-137465151D01*
X202315924Y-137348855D01*
X201905890Y-137179024D01*
X201676000Y-137300345D01*
X201676000Y-138493500D01*
X201696000Y-138493500D01*
X201696000Y-138747500D01*
X201676000Y-138747500D01*
X201676000Y-138767500D01*
X201422000Y-138767500D01*
X201422000Y-138747500D01*
X201402000Y-138747500D01*
X201402000Y-138493500D01*
X201422000Y-138493500D01*
X201422000Y-137300345D01*
X201192110Y-137179024D01*
X200782076Y-137348855D01*
X200353817Y-137739142D01*
X200292843Y-137868978D01*
X200079625Y-137549875D01*
X199588418Y-137221661D01*
X199155256Y-137135500D01*
X198862744Y-137135500D01*
X198429582Y-137221661D01*
X197938375Y-137549875D01*
X197739000Y-137848261D01*
X197539625Y-137549875D01*
X197048418Y-137221661D01*
X196615256Y-137135500D01*
X196322744Y-137135500D01*
X196051356Y-137189482D01*
X196846168Y-136394671D01*
X196905544Y-136354997D01*
X196945219Y-136295620D01*
X196945223Y-136295616D01*
X197062734Y-136119749D01*
X197062734Y-136119748D01*
X197062735Y-136119747D01*
X197078121Y-136042396D01*
X199377364Y-136042396D01*
X199419822Y-136084854D01*
X199746567Y-136220196D01*
X200100233Y-136220196D01*
X200426978Y-136084854D01*
X200677058Y-135834774D01*
X200812400Y-135508029D01*
X200812400Y-135154363D01*
X200677058Y-134827618D01*
X200426978Y-134577538D01*
X200100233Y-134442196D01*
X199746567Y-134442196D01*
X199419822Y-134577538D01*
X199377364Y-134619996D01*
X196911667Y-134619996D01*
X196892458Y-134573622D01*
X196697536Y-134378700D01*
X205771559Y-134378700D01*
X205841600Y-134392632D01*
X205911641Y-134378700D01*
X205911646Y-134378700D01*
X206119096Y-134337436D01*
X206354346Y-134180246D01*
X206394024Y-134120864D01*
X207088689Y-133426200D01*
X207148733Y-133426200D01*
X207251300Y-133383715D01*
X207251300Y-135562042D01*
G36*
X201091801Y-122874990D02*
X201091800Y-124736911D01*
X199844712Y-125984000D01*
X199784667Y-125984000D01*
X199547812Y-126082108D01*
X198895402Y-124817541D01*
X197487234Y-123627123D01*
X197384055Y-123571682D01*
X196655212Y-123433324D01*
X195357582Y-127677681D01*
X199574790Y-128967011D01*
X199670367Y-129006600D01*
X200024033Y-129006600D01*
X200350778Y-128871258D01*
X200600858Y-128621178D01*
X200736200Y-128294433D01*
X200736200Y-128234388D01*
X202675468Y-126295121D01*
X202734847Y-126255445D01*
X202774523Y-126196066D01*
X202774525Y-126196064D01*
X202892036Y-126020197D01*
X202892036Y-126020196D01*
X202892037Y-126020195D01*
X202933301Y-125812745D01*
X202933301Y-125812742D01*
X202947233Y-125742700D01*
X202933301Y-125672658D01*
X202933301Y-124183089D01*
X203819811Y-125069600D01*
X203483234Y-125406178D01*
X203423855Y-125445854D01*
X203384179Y-125505233D01*
X203384176Y-125505236D01*
X203266665Y-125681104D01*
X203211468Y-125958600D01*
X203225401Y-126028646D01*
X203225400Y-128246522D01*
X203178796Y-128277662D01*
X203139120Y-128337041D01*
X199472362Y-132003800D01*
X197086313Y-132003800D01*
X198143459Y-131458402D01*
X199333877Y-130050234D01*
X199389318Y-129947055D01*
X199527676Y-129218212D01*
X195283319Y-127920582D01*
X194096964Y-131800975D01*
X193893549Y-131597560D01*
X194928623Y-128211985D01*
X195184859Y-127955749D01*
X195005251Y-127776141D01*
X194959739Y-127821653D01*
X191279506Y-126696493D01*
X191482921Y-126493078D01*
X194749015Y-127491623D01*
X195005251Y-127747859D01*
X195184859Y-127568251D01*
X195139347Y-127522739D01*
X196412311Y-123359061D01*
X195730703Y-123066202D01*
X193893226Y-123220175D01*
X192254541Y-124065598D01*
X192031574Y-124329350D01*
X192003347Y-124287105D01*
X191943965Y-124247427D01*
X191753973Y-124057435D01*
X191714296Y-123998054D01*
X191479046Y-123840864D01*
X191271596Y-123799600D01*
X191271591Y-123799600D01*
X191201550Y-123785668D01*
X191131509Y-123799600D01*
X188391800Y-123799600D01*
X188391800Y-123623502D01*
X188539290Y-123524952D01*
X188578968Y-123465570D01*
X190953651Y-121090887D01*
X191063222Y-121200458D01*
X191389967Y-121335800D01*
X191743633Y-121335800D01*
X192070378Y-121200458D01*
X192141832Y-121129004D01*
X192203506Y-121116736D01*
X192438756Y-120959546D01*
X192441927Y-120954800D01*
X199171612Y-120954800D01*
X201091801Y-122874990D01*
X201091801Y-122874990D01*
G37*
X201091801Y-122874990D02*
X201091800Y-124736911D01*
X199844712Y-125984000D01*
X199784667Y-125984000D01*
X199547812Y-126082108D01*
X198895402Y-124817541D01*
X197487234Y-123627123D01*
X197384055Y-123571682D01*
X196655212Y-123433324D01*
X195357582Y-127677681D01*
X199574790Y-128967011D01*
X199670367Y-129006600D01*
X200024033Y-129006600D01*
X200350778Y-128871258D01*
X200600858Y-128621178D01*
X200736200Y-128294433D01*
X200736200Y-128234388D01*
X202675468Y-126295121D01*
X202734847Y-126255445D01*
X202774523Y-126196066D01*
X202774525Y-126196064D01*
X202892036Y-126020197D01*
X202892036Y-126020196D01*
X202892037Y-126020195D01*
X202933301Y-125812745D01*
X202933301Y-125812742D01*
X202947233Y-125742700D01*
X202933301Y-125672658D01*
X202933301Y-124183089D01*
X203819811Y-125069600D01*
X203483234Y-125406178D01*
X203423855Y-125445854D01*
X203384179Y-125505233D01*
X203384176Y-125505236D01*
X203266665Y-125681104D01*
X203211468Y-125958600D01*
X203225401Y-126028646D01*
X203225400Y-128246522D01*
X203178796Y-128277662D01*
X203139120Y-128337041D01*
X199472362Y-132003800D01*
X197086313Y-132003800D01*
X198143459Y-131458402D01*
X199333877Y-130050234D01*
X199389318Y-129947055D01*
X199527676Y-129218212D01*
X195283319Y-127920582D01*
X194096964Y-131800975D01*
X193893549Y-131597560D01*
X194928623Y-128211985D01*
X195184859Y-127955749D01*
X195005251Y-127776141D01*
X194959739Y-127821653D01*
X191279506Y-126696493D01*
X191482921Y-126493078D01*
X194749015Y-127491623D01*
X195005251Y-127747859D01*
X195184859Y-127568251D01*
X195139347Y-127522739D01*
X196412311Y-123359061D01*
X195730703Y-123066202D01*
X193893226Y-123220175D01*
X192254541Y-124065598D01*
X192031574Y-124329350D01*
X192003347Y-124287105D01*
X191943965Y-124247427D01*
X191753973Y-124057435D01*
X191714296Y-123998054D01*
X191479046Y-123840864D01*
X191271596Y-123799600D01*
X191271591Y-123799600D01*
X191201550Y-123785668D01*
X191131509Y-123799600D01*
X188391800Y-123799600D01*
X188391800Y-123623502D01*
X188539290Y-123524952D01*
X188578968Y-123465570D01*
X190953651Y-121090887D01*
X191063222Y-121200458D01*
X191389967Y-121335800D01*
X191743633Y-121335800D01*
X192070378Y-121200458D01*
X192141832Y-121129004D01*
X192203506Y-121116736D01*
X192438756Y-120959546D01*
X192441927Y-120954800D01*
X199171612Y-120954800D01*
X201091801Y-122874990D01*
G04 #@! TD*
M02*
