M48
;DRILL file {KiCad 5.0.0} date Fri Sep 21 06:25:03 2018
;FORMAT={-:-/ absolute / inch / decimal}
FMAT,2
INCH,TZ
T1C0.0100
T2C0.0394
T3C0.0866
%
G90
G05
M72
T1
X7.215Y-5.285
X7.24Y-4.8925
X7.277Y-4.794
X7.2925Y-4.893
X7.293Y-4.843
X7.3725Y-5.1733
X7.394Y-5.188
X7.414Y-5.051
X7.414Y-5.163
X7.45Y-4.7675
X7.4512Y-5.125
X7.4825Y-5.03
X7.5Y-4.82
X7.51Y-5.192
X7.52Y-4.9225
X7.542Y-4.742
X7.552Y-4.787
X7.623Y-4.57
X7.69Y-4.6875
X7.6925Y-4.575
X7.7108Y-5.3415
X7.722Y-5.318
X7.741Y-5.3002
X7.783Y-4.557
X7.7975Y-4.69
X7.805Y-4.97
X7.8155Y-4.763
X7.85Y-5.125
X7.868Y-5.044
X7.87Y-4.925
X7.871Y-5.328
X7.8725Y-4.995
X7.92Y-4.6525
X7.9425Y-4.77
X7.9825Y-4.7025
X8.0275Y-5.1375
X8.0285Y-5.0895
X8.066Y-4.959
X8.0763Y-5.1947
X8.09Y-5.2175
X8.1485Y-5.218
X8.153Y-4.9595
T2
X7.435Y-5.4575
X7.535Y-5.4575
X7.635Y-5.4575
X7.735Y-5.4575
X7.835Y-5.4575
X7.935Y-5.4575
T3
X8.09Y-5.435
X7.28Y-5.435
X7.28Y-4.625
X8.09Y-4.625
T0
M30
