<?xml version="1.0" encoding="UTF-8" standalone="no"?>
<!-- Created with Inkscape (http://www.inkscape.org/) -->

<svg
   xmlns:dc="http://purl.org/dc/elements/1.1/"
   xmlns:cc="http://creativecommons.org/ns#"
   xmlns:rdf="http://www.w3.org/1999/02/22-rdf-syntax-ns#"
   xmlns:svg="http://www.w3.org/2000/svg"
   xmlns="http://www.w3.org/2000/svg"
   xmlns:sodipodi="http://sodipodi.sourceforge.net/DTD/sodipodi-0.dtd"
   xmlns:inkscape="http://www.inkscape.org/namespaces/inkscape"
   width="60mm"
   height="60mm"
   viewBox="0 0 60 60"
   version="1.1"
   id="svg886"
   inkscape:version="0.92.2 2405546, 2018-03-11"
   sodipodi:docname="enclosure-ACRYLIC.svg">
  <defs
     id="defs880">
    <inkscape:path-effect
       effect="bspline"
       id="path-effect29513"
       is_visible="true"
       weight="33.333333"
       steps="2"
       helper_size="0"
       apply_no_weight="true"
       apply_with_weight="true"
       only_selected="false" />
    <inkscape:path-effect
       effect="bspline"
       id="path-effect29507"
       is_visible="true"
       weight="33.333333"
       steps="2"
       helper_size="0"
       apply_no_weight="true"
       apply_with_weight="true"
       only_selected="false" />
    <inkscape:path-effect
       effect="bspline"
       id="path-effect11234"
       is_visible="true"
       weight="33.333333"
       steps="2"
       helper_size="0"
       apply_no_weight="true"
       apply_with_weight="true"
       only_selected="false" />
    <inkscape:path-effect
       effect="bspline"
       id="path-effect841"
       is_visible="true"
       weight="33.333333"
       steps="2"
       helper_size="0"
       apply_no_weight="true"
       apply_with_weight="true"
       only_selected="false" />
    <inkscape:path-effect
       effect="bspline"
       id="path-effect29513-7"
       is_visible="true"
       weight="33.333333"
       steps="2"
       helper_size="0"
       apply_no_weight="true"
       apply_with_weight="true"
       only_selected="false" />
    <inkscape:path-effect
       effect="bspline"
       id="path-effect29513-8"
       is_visible="true"
       weight="33.333333"
       steps="2"
       helper_size="0"
       apply_no_weight="true"
       apply_with_weight="true"
       only_selected="false" />
    <inkscape:path-effect
       effect="bspline"
       id="path-effect29513-9"
       is_visible="true"
       weight="33.333333"
       steps="2"
       helper_size="0"
       apply_no_weight="true"
       apply_with_weight="true"
       only_selected="false" />
  </defs>
  <sodipodi:namedview
     id="base"
     pagecolor="#ffffff"
     bordercolor="#666666"
     borderopacity="1.0"
     inkscape:pageopacity="0.0"
     inkscape:pageshadow="2"
     inkscape:zoom="5.6568542"
     inkscape:cx="37.953334"
     inkscape:cy="102.90252"
     inkscape:document-units="mm"
     inkscape:current-layer="layer9"
     showgrid="true"
     objecttolerance="10000"
     inkscape:window-width="1920"
     inkscape:window-height="1028"
     inkscape:window-x="0"
     inkscape:window-y="28"
     inkscape:window-maximized="1"
     inkscape:measure-start="13.2283,81.2598"
     inkscape:measure-end="60.4724,86.9291">
    <inkscape:grid
       type="xygrid"
       id="grid1431"
       units="mm"
       spacingx="0.1"
       spacingy="0.1" />
  </sodipodi:namedview>
  <metadata
     id="metadata883">
    <rdf:RDF>
      <cc:Work
         rdf:about="">
        <dc:format>image/svg+xml</dc:format>
        <dc:type
           rdf:resource="http://purl.org/dc/dcmitype/StillImage" />
        <dc:title />
      </cc:Work>
    </rdf:RDF>
  </metadata>
  <g
     inkscape:label="External_Cutout"
     inkscape:groupmode="layer"
     id="layer1"
     transform="translate(0,-237)"
     style="display:inline">
    <path
       style="fill:none;stroke:#ff0000;stroke-width:0.001;stroke-linecap:round;stroke-linejoin:miter;stroke-miterlimit:4;stroke-dasharray:none;stroke-opacity:1"
       d="m 6.9,250.8 v 37.8"
       id="path11287"
       inkscape:connector-curvature="0" />
    <path
       style="fill:none;stroke:#ff0000;stroke-width:0.001;stroke-linecap:round;stroke-linejoin:miter;stroke-miterlimit:4;stroke-dasharray:none;stroke-opacity:1"
       d="m 39.5,250.8 v 37.8"
       id="path11287-8"
       inkscape:connector-curvature="0" />
    <path
       style="fill:none;stroke:#ff0000;stroke-width:0.001;stroke-linecap:round;stroke-linejoin:miter;stroke-miterlimit:4;stroke-dasharray:none;stroke-opacity:1"
       d="M 33.9,245.2 H 12.5"
       id="path11287-9-8"
       inkscape:connector-curvature="0" />
    <path
       style="fill:none;stroke:#ff0000;stroke-width:0.001;stroke-linecap:round;stroke-linejoin:miter;stroke-miterlimit:4;stroke-dasharray:none;stroke-opacity:1"
       d="M 33.9,294.2 H 12.5"
       id="path11287-9-8-1"
       inkscape:connector-curvature="0" />
    <path
       style="fill:none;stroke:#ff0000;stroke-width:0.001;stroke-linecap:round;stroke-linejoin:miter;stroke-miterlimit:4;stroke-dasharray:none;stroke-opacity:1"
       d="m 6.8999999,250.8 c 0,-1.86693 0,-3.7336 0.9333333,-4.6668 C 8.7666665,245.2 10.633598,245.2 12.5,245.2"
       id="path29511"
       inkscape:connector-curvature="0"
       inkscape:path-effect="#path-effect29513"
       inkscape:original-d="m 6.8999999,250.8 c 2.646e-4,-1.86693 2.646e-4,-3.7336 0,-5.6 1.8666666,-2.6e-4 3.7335981,-2.6e-4 5.6000001,0" />
    <path
       style="display:inline;fill:none;stroke:#ff0000;stroke-width:0.001;stroke-linecap:round;stroke-linejoin:miter;stroke-miterlimit:4;stroke-dasharray:none;stroke-opacity:1"
       d="m 39.5,250.8 c 0,-1.86693 0,-3.7336 -0.933333,-4.6668 C 37.633334,245.2 35.766402,245.2 33.9,245.2"
       id="path29511-2"
       inkscape:connector-curvature="0"
       inkscape:path-effect="#path-effect29513-7"
       inkscape:original-d="m 39.5,250.8 c -2.65e-4,-1.86693 -2.65e-4,-3.7336 0,-5.6 -1.866666,-2.6e-4 -3.733598,-2.6e-4 -5.6,0" />
    <path
       style="display:inline;fill:none;stroke:#ff0000;stroke-width:0.001;stroke-linecap:round;stroke-linejoin:miter;stroke-miterlimit:4;stroke-dasharray:none;stroke-opacity:1"
       d="m 39.5,288.6 c 0,1.86693 0,3.7336 -0.933333,4.6668 C 37.633334,294.2 35.766402,294.2 33.9,294.2"
       id="path29511-29"
       inkscape:connector-curvature="0"
       inkscape:path-effect="#path-effect29513-8"
       inkscape:original-d="m 39.5,288.6 c -2.65e-4,1.86693 -2.65e-4,3.7336 0,5.6 -1.866666,2.6e-4 -3.733598,2.6e-4 -5.6,0" />
    <path
       style="display:inline;fill:none;stroke:#ff0000;stroke-width:0.001;stroke-linecap:round;stroke-linejoin:miter;stroke-miterlimit:4;stroke-dasharray:none;stroke-opacity:1"
       d="m 6.8999998,288.6 c 0,1.86693 0,3.7336 0.9333333,4.6668 C 8.7666664,294.2 10.633598,294.2 12.5,294.2"
       id="path29511-6"
       inkscape:connector-curvature="0"
       inkscape:path-effect="#path-effect29513-9"
       inkscape:original-d="m 6.8999998,288.6 c 2.646e-4,1.86693 2.646e-4,3.7336 0,5.6 1.8666666,2.6e-4 3.7335982,2.6e-4 5.6000002,0" />
  </g>
  <g
     inkscape:groupmode="layer"
     id="layer8"
     inkscape:label="Raster"
     style="display:inline">
    <path
       style="display:inline;fill:#000000;fill-opacity:1;stroke:none;stroke-width:0;stroke-linecap:round;stroke-linejoin:round;stroke-miterlimit:4;stroke-dasharray:none;stroke-opacity:1"
       d="m 61.694931,31.301859 c -8.311953,0.120244 -16.654558,-0.213487 -24.94336,0.516113 -3.655949,0.429262 -7.508052,2.305421 -8.793771,5.993188 -1.880317,4.206476 -1.06545,8.917454 -1.334058,13.373367 -0.19483,46.639062 -0.228595,93.279193 -0.13769,139.918593 0.261132,5.85112 -0.595707,11.902 1.211808,17.57813 0.943464,3.37274 4.006848,5.71961 7.374168,6.33878 5.350925,1.20285 10.887632,0.52122 16.320633,0.74896 27.738922,0.0452 55.479819,0.1317 83.217569,-0.14051 3.97105,0.0119 8.51497,-0.58013 11.31468,-3.69332 2.78838,-3.59649 2.86956,-8.39243 2.84398,-12.73716 0.27962,-39.99878 0.19218,-79.99953 0.24397,-119.999169 -0.10708,-12.211815 0.19208,-24.440327 -0.44293,-36.639648 -0.37192,-3.611765 -1.75751,-7.830887 -5.38459,-9.355259 -4.69939,-2.365479 -10.10101,-1.471825 -15.15781,-1.744613 -22.11052,-0.126595 -44.221757,-0.140689 -66.332599,-0.157452 z m 66.316899,11.558105 c 4.81923,-0.195986 9.68826,4.084456 9.25671,9.074211 0.31762,2.542526 -0.68631,5.083154 -2.54724,6.830574 -3.30597,3.315385 -9.2609,3.747627 -12.73487,0.399902 -2.0867,-1.803897 -3.40781,-4.538577 -3.05581,-7.321278 -0.333,-4.893179 4.35152,-9.065858 9.08121,-8.983409 z m -80.791509,0.184082 c 4.755175,-0.598539 9.047315,3.725178 9.306152,8.325684 0.55068,4.681333 -3.10465,9.548816 -7.899414,9.990724 -4.53339,0.849452 -9.414613,-2.305955 -10.42334,-6.859376 -1.403771,-4.754902 1.952529,-10.581254 6.958985,-11.405274 0.687935,-0.05789 1.3654,-0.04596 2.057617,-0.05176 z m 1.652344,37.644043 c 3.026736,-0.173988 4.972186,3.574025 3.437988,6.039552 -1.384505,2.677703 -5.780337,2.707115 -7.061035,-0.09229 -1.050426,-2.08315 -0.234884,-5.034757 2.200683,-5.709962 0.457073,-0.155605 0.939492,-0.2363 1.422364,-0.237305 z m 77.919435,9.77e-4 c 2.92653,0.02132 4.98341,3.850203 3.13232,6.222168 -1.4957,2.540332 -5.685,2.464512 -6.94384,-0.285155 -1.26496,-2.34869 0.24343,-5.75248 3.0581,-5.885255 0.24777,-0.0305 0.52618,-0.04632 0.75342,-0.05176 z m 0.003,77.756344 c 3.11047,-0.0112 5.06399,4.18521 2.9209,6.49121 -1.69243,2.35786 -5.8289,1.92413 -6.8794,-0.84375 -1.1247,-2.39397 0.59839,-5.52522 3.31934,-5.62109 0.21203,-0.0247 0.42585,-0.032 0.63916,-0.0264 z m -77.666018,0.02 c 3.064971,-0.0143 4.913996,4.12815 2.894044,6.4126 -1.611,2.42061 -5.794826,2.09301 -6.854981,-0.70703 -1.053168,-2.25447 0.249274,-5.44225 2.950683,-5.63965 0.33417,-0.0504 0.672901,-0.0603 1.010254,-0.0659 z m -1.501465,27.23291 c 4.842174,0.0751 9.254681,4.51218 8.874511,9.39551 0.295613,4.03884 -2.912815,7.90596 -6.732421,8.92627 -3.061947,0.44267 -6.675623,0.37856 -8.876465,-2.17773 -3.80869,-3.30986 -3.966227,-9.6457 -0.458984,-13.24366 1.82983,-1.97084 4.56187,-3.0205 7.193359,-2.90039 z m 80.485353,0.0181 c 4.62163,-0.17403 8.99396,3.70314 9.27539,8.33447 0.55172,4.5629 -2.83992,9.49411 -7.53906,10.08936 -2.39528,0.26843 -4.95415,0.16475 -6.95557,-1.36279 -2.66822,-1.75195 -4.31488,-4.87864 -3.97141,-8.06055 -0.30797,-4.91983 4.43927,-9.09037 9.19065,-9.00049 z"
       id="path51645"
       inkscape:connector-curvature="0"
       transform="scale(0.26458333)" />
  </g>
  <g
     inkscape:groupmode="layer"
     id="layer9"
     inkscape:label="Raster_Neg"
     style="display:inline">
    <g
       id="g51703">
      <path
         inkscape:connector-curvature="0"
         id="path3802"
         d="m 27.41424,41.77144 c -0.654714,-0.17514 -1.054633,-0.45186 -1.413629,-0.97816 -0.583921,-0.85604 -0.627754,-2.05631 -0.105176,-2.87982 0.09577,-0.15091 0.367406,-0.42471 0.603647,-0.60844 0.380175,-0.2957 0.425577,-0.35255 0.395144,-0.49484 -0.02834,-0.13248 9.39e-4,-0.18506 0.166756,-0.29882 0.323846,-0.22228 0.411261,-0.36512 0.412743,-0.67449 0.0013,-0.27688 -0.0028,-0.28303 -0.220498,-0.32386 -0.122014,-0.023 -0.284606,-0.0828 -0.361301,-0.13303 -0.08507,-0.0558 -0.239849,-0.0836 -0.396943,-0.0717 l -0.257495,0.0198 -0.32006,-2.22085 c -0.176033,-1.22147 -0.377602,-2.59931 -0.447932,-3.06188 -0.09946,-0.65412 -0.12786,-1.12745 -0.12782,-2.12957 2.7e-5,-0.7087 0.02982,-1.50757 0.0662,-1.77531 0.123663,-0.90982 0.156329,-1.36738 0.104281,-1.46037 -0.02856,-0.051 -0.06445,-0.24987 -0.07977,-0.44183 -0.01531,-0.19198 -0.102867,-0.6776 -0.194575,-1.07919 l -0.166741,-0.73013 -0.608137,-0.0463 c -0.334473,-0.0255 -0.735991,-0.0885 -0.892256,-0.14017 -0.318534,-0.10532 -0.966769,-0.54607 -1.406771,-0.95662 l -0.291458,-0.27194 0.0068,-0.75278 c 0.0051,-0.54734 -0.01934,-0.82579 -0.08928,-1.02031 -0.05288,-0.14711 -0.233671,-0.77686 -0.401728,-1.39941 -0.169101,-0.62643 -0.346768,-1.16301 -0.397833,-1.20153 -0.05076,-0.0382 -0.659154,-0.29837 -1.352015,-0.57802 l -1.259745,-0.50843 -0.654084,0.004 -0.654082,0.004 v -0.32145 c 0,-0.41283 0.149038,-0.86631 0.342007,-1.04064 0.08334,-0.0753 0.176077,-0.1369 0.206069,-0.1369 0.02999,0 0.138676,0.12229 0.241524,0.27178 0.225366,0.32756 0.505169,0.49658 2.009267,1.21364 0.749625,0.35737 1.217091,0.54488 1.399432,0.56129 0.150593,0.0135 0.438083,0.0733 0.638873,0.13249 0.314763,0.0929 0.372675,0.13329 0.420258,0.29214 0.05184,0.17313 0.184239,0.24124 2.182874,1.12294 1.170226,0.51626 2.158457,0.94759 2.196072,0.95849 0.04396,0.0134 0.04665,0.002 0.0076,-0.0304 -0.114397,-0.0945 -0.08906,-0.19567 0.07899,-0.31533 0.0924,-0.0658 0.290124,-0.27265 0.439359,-0.45969 0.265791,-0.33308 0.277703,-0.34004 0.582347,-0.34004 0.385542,0 0.648934,0.087 0.985206,0.32545 0.182124,0.12914 0.317436,0.30031 0.449556,0.56867 0.178744,0.36309 0.187355,0.41295 0.158547,0.91819 -0.03198,0.56086 -0.140677,0.86903 -0.353383,1.00187 -0.06588,0.0412 -0.11964,0.1024 -0.119466,0.13621 2.53e-4,0.0571 0.529437,0.22721 1.247014,0.40087 0.407494,0.0985 0.720822,0.27595 0.834846,0.47248 0.05156,0.0889 0.140742,0.42171 0.19819,0.73963 0.05745,0.31792 0.250591,1.05717 0.429213,1.64281 0.397058,1.3018 0.636902,2.24079 0.636902,2.49348 0,0.10434 0.04578,0.27737 0.101734,0.38447 0.06957,0.13315 0.110495,0.40108 0.129442,0.84737 l 0.02772,0.65263 -0.16383,0.0623 c -0.09011,0.0343 -0.267324,0.0623 -0.39382,0.0623 -0.258805,0 -0.391829,-0.1117 -0.499026,-0.41925 -0.0512,-0.1469 -0.0514,-0.21618 -6.71e-4,-0.26681 0.03762,-0.0377 0.0684,-0.11398 0.0684,-0.16973 0,-0.0558 0.05267,-0.16827 0.117038,-0.25011 0.116489,-0.14808 0.116314,-0.14972 -0.03483,-0.34284 -0.133064,-0.17003 -0.187966,-0.19407 -0.443214,-0.19407 h -0.291247 l -0.03677,-0.31046 c -0.02022,-0.17075 -0.105953,-0.42849 -0.190488,-0.57276 -0.08454,-0.14426 -0.192956,-0.4305 -0.240916,-0.63608 -0.04795,-0.20558 -0.115857,-0.40832 -0.150903,-0.45053 -0.03504,-0.0423 -0.0947,-0.22131 -0.13258,-0.39792 -0.03789,-0.17665 -0.0892,-0.29799 -0.114036,-0.26966 -0.05966,0.068 -0.242711,0.69942 -0.319449,1.10184 -0.04927,0.25838 -0.02492,0.62852 0.126035,1.91662 0.10291,0.87803 0.257363,2.68677 0.343243,4.01944 0.08589,1.33266 0.182439,2.56166 0.214576,2.7311 0.08027,0.42325 0.07326,0.82275 -0.01541,0.87754 -0.0742,0.0459 -0.434573,0.12417 -0.848238,0.18427 l -0.22235,0.0324 -0.04233,0.47816 c -0.04405,0.49766 -0.0073,0.95467 0.109006,1.36003 0.04456,0.1551 0.227432,0.40946 0.52734,0.73345 0.253451,0.27381 0.539033,0.65805 0.637488,0.85775 0.143689,0.29145 0.183484,0.46344 0.204748,0.88491 0.04084,0.80975 -0.182588,1.45601 -0.691505,2.00007 -0.327255,0.34987 -0.734506,0.57789 -1.248411,0.69904 -0.484348,0.11411 -0.958117,0.11291 -1.394164,-0.004 z m 1.403194,-0.12041 c 0.824397,-0.18751 1.443756,-0.77707 1.713939,-1.63148 0.09028,-0.28547 0.112158,-0.49809 0.09458,-0.919 -0.01991,-0.47677 -0.04828,-0.59483 -0.219346,-0.91267 -0.108068,-0.2008 -0.383791,-0.56034 -0.612727,-0.79898 -0.286134,-0.29828 -0.447114,-0.5245 -0.515003,-0.72374 -0.126318,-0.37072 -0.180072,-1.10402 -0.118084,-1.61082 l 0.04838,-0.39547 0.273801,-0.0431 c 0.848911,-0.13368 0.819705,-0.12162 0.841192,-0.34679 0.01087,-0.11398 -0.0092,-0.37415 -0.04459,-0.57803 -0.0354,-0.20386 -0.133976,-1.45218 -0.219068,-2.77404 -0.08508,-1.32185 -0.237822,-3.1108 -0.339413,-3.97543 -0.12676,-1.07882 -0.171646,-1.68015 -0.143066,-1.91662 0.02291,-0.18949 0.06228,-0.37193 0.08752,-0.40539 0.02524,-0.0336 0.09637,-0.25935 0.158079,-0.50197 0.154413,-0.60711 0.303318,-0.57989 0.451776,0.0826 0.03645,0.16266 0.102155,0.33725 0.146007,0.38799 0.04385,0.0507 0.0982,0.21545 0.120767,0.36604 0.02258,0.15059 0.121315,0.42873 0.219434,0.61807 0.09812,0.18936 0.196312,0.45632 0.21821,0.59324 0.03948,0.24687 0.04203,0.24897 0.302914,0.24897 0.244015,0 0.277005,0.0203 0.454731,0.27854 l 0.19163,0.27852 -0.12786,0.1361 c -0.07032,0.0748 -0.12786,0.19045 -0.12786,0.25691 0,0.0664 -0.03001,0.15082 -0.0667,0.18749 -0.04836,0.0485 -0.0381,0.12699 0.03736,0.28599 0.05723,0.12055 0.135157,0.22242 0.173175,0.22627 0.102597,0.0108 0.294573,-0.006 0.449404,-0.0405 0.128115,-0.0278 0.136902,-0.061 0.136902,-0.51722 0,-0.33029 -0.04017,-0.60677 -0.124562,-0.85727 -0.06851,-0.20336 -0.113887,-0.401 -0.100849,-0.43921 0.03165,-0.0927 -0.313884,-1.41875 -0.683747,-2.62407 -0.16445,-0.53591 -0.347336,-1.24819 -0.406409,-1.58284 -0.132941,-0.75305 -0.231296,-0.87321 -0.844422,-1.03163 -0.234255,-0.0604 -0.651801,-0.1781 -0.927886,-0.2613 -0.452829,-0.13646 -0.501971,-0.16601 -0.501971,-0.3019 0,-0.0978 0.04132,-0.16144 0.117616,-0.18139 0.183808,-0.048 0.326569,-0.42686 0.357145,-0.9476 0.02078,-0.35407 0.0013,-0.54159 -0.07735,-0.74776 -0.05779,-0.15136 -0.176591,-0.36016 -0.263981,-0.46401 -0.221206,-0.26288 -0.701635,-0.47434 -1.079389,-0.47507 -0.271929,-6.7e-4 -0.324165,0.0211 -0.456336,0.18968 -0.08209,0.10457 -0.269204,0.30619 -0.415805,0.44784 -0.170134,0.16438 -0.241661,0.27293 -0.197744,0.30007 0.09259,0.0573 0.087,0.15385 -0.01112,0.1915 -0.07477,0.0287 -4.307033,-1.80181 -4.464607,-1.93099 -0.03983,-0.0327 -0.08089,-0.11799 -0.09127,-0.1896 -0.01458,-0.10068 -0.100202,-0.15494 -0.377235,-0.23909 -0.197103,-0.0598 -0.470907,-0.11867 -0.608448,-0.13074 -0.15557,-0.0137 -0.713536,-0.24188 -1.476417,-0.60391 -0.674485,-0.3201 -1.332769,-0.64917 -1.462851,-0.73129 -0.235049,-0.14838 -0.582379,-0.50307 -0.646111,-0.65981 -0.05042,-0.12404 -0.327059,0.20576 -0.403489,0.48097 -0.03484,0.12538 -0.06349,0.33758 -0.06369,0.47145 l -4.28e-4,0.24334 h 0.593247 0.593245 l 1.33859,0.53622 c 0.736224,0.29493 1.369386,0.56873 1.407026,0.60846 0.03764,0.0397 0.208057,0.59383 0.378697,1.23134 0.170645,0.63753 0.352042,1.27757 0.40311,1.42231 0.06358,0.18018 0.09285,0.49475 0.09285,0.99776 v 0.7346 l 0.319438,0.30007 c 0.391636,0.36786 0.901586,0.71545 1.250483,0.85231 0.148795,0.0584 0.53619,0.11949 0.8977,0.1416 0.349766,0.0215 0.658812,0.0689 0.68676,0.10564 0.0656,0.0862 0.366999,1.50187 0.398235,1.87048 0.01314,0.15539 0.04849,0.32638 0.07847,0.37997 0.05601,0.10003 0.01827,0.66986 -0.101216,1.5279 -0.03728,0.26771 -0.06734,1.07542 -0.06681,1.79491 9.39e-4,1.24135 0.01493,1.39988 0.274734,3.10309 0.150578,0.98721 0.347102,2.33333 0.436724,2.99138 l 0.162949,1.19645 0.196205,-0.0319 c 0.1209,-0.0197 0.282094,0.01 0.419968,0.0742 0.123073,0.0584 0.311492,0.12404 0.418721,0.14582 0.191189,0.0388 0.195309,0.0468 0.212927,0.41192 l 0.01796,0.37227 -0.30307,0.26105 c -0.254911,0.21956 -0.297967,0.28659 -0.270941,0.42171 0.0279,0.1395 -0.0067,0.18559 -0.262498,0.34991 -0.426484,0.27398 -0.720816,0.60112 -0.91511,1.01712 -0.153373,0.32839 -0.170309,0.42927 -0.168573,1.00393 0.0016,0.52311 0.02757,0.70331 0.143403,0.99442 0.28173,0.70807 0.840608,1.2013 1.588989,1.40237 0.441862,0.11868 0.885748,0.11922 1.402952,0.001 z M 26.239359,20.47332 c -0.01476,-0.0148 -0.350665,-0.0532 -0.746448,-0.0856 -0.395785,-0.0323 -0.898133,-0.0897 -1.116333,-0.12779 -0.359574,-0.0626 -0.430233,-0.10111 -0.754541,-0.41035 -0.196799,-0.18768 -0.481286,-0.50938 -0.632192,-0.71489 -0.15091,-0.20549 -0.338541,-0.40287 -0.416964,-0.43859 -0.07841,-0.0358 -0.225666,-0.20985 -0.327217,-0.38693 -0.140069,-0.24425 -0.184772,-0.39811 -0.185204,-0.63742 -6.72e-4,-0.38664 0.08419,-0.62764 0.221076,-0.62764 0.05663,0 1.084979,0.40383 2.285212,0.89739 l 2.18224,0.89737 -0.01247,0.24346 c -0.01412,0.27578 0.04966,0.42204 0.276643,0.63436 0.114758,0.10726 0.157702,0.20886 0.157702,0.37282 0,0.1239 -0.03424,0.25242 -0.07606,0.28555 -0.07853,0.062 -0.807757,0.1458 -0.855448,0.0982 z m 0.747768,-0.17311 c 0.126237,-0.078 0.05795,-0.35126 -0.147881,-0.59172 -0.161361,-0.18851 -0.214147,-0.30972 -0.228169,-0.52392 l -0.01824,-0.27867 -2.09915,-0.86851 c -1.154533,-0.47767 -2.13153,-0.86918 -2.171104,-0.86998 -0.09631,-0.001 -0.151146,0.18843 -0.151146,0.52474 0,0.19795 0.04955,0.35729 0.174076,0.55976 0.09575,0.15568 0.228079,0.30729 0.294083,0.3369 0.06601,0.0297 0.284292,0.27107 0.485079,0.53656 0.200788,0.26549 0.476922,0.58675 0.61363,0.71393 0.202881,0.18873 0.320729,0.24379 0.641259,0.29961 0.215985,0.0376 0.731711,0.0962 1.146055,0.12994 0.414347,0.0338 0.761498,0.0697 0.771447,0.0796 0.03258,0.0326 0.626471,-0.01 0.690063,-0.0482 z"
         style="display:inline;fill:#ffffff;fill-opacity:1;stroke:#ffffff;stroke-width:0;stroke-miterlimit:4;stroke-dasharray:none;stroke-opacity:1" />
      <path
         inkscape:connector-curvature="0"
         id="path51637"
         d="m 17.60403,14.19916 c -0.3307,0.19196 -0.430637,0.61395 -0.435539,0.97281 -0.09211,0.25072 0.07962,0.33188 0.303312,0.27963 0.312296,0.0168 0.637615,-0.0335 0.94184,0.0248 0.886115,0.37347 1.79854,0.69111 2.662139,1.11471 0.140265,0.20066 0.160655,0.47139 0.247323,0.69963 0.206911,0.73267 0.428091,1.46431 0.616765,2.20025 0.02013,0.5008 -0.0051,1.01192 0.04322,1.50631 0.531893,0.46239 1.064183,0.99678 1.76165,1.19153 0.452025,0.10574 0.928482,0.0744 1.373559,0.20212 0.131941,0.29915 0.162662,0.64493 0.242882,0.96399 0.0874,0.47151 0.177049,0.94324 0.256958,1.41545 -1.43e-4,0.72204 -0.172083,1.4322 -0.162487,2.15655 -0.03524,1.14031 -0.05184,2.2886 0.147336,3.41665 0.237332,1.61925 0.46903,3.23932 0.70219,4.85917 0.12807,0.10203 0.340213,-0.0171 0.500873,0.0521 0.223763,0.0879 0.47222,0.15306 0.693949,0.24514 0.05733,0.21746 0.05198,0.44155 0.07203,0.66385 -0.181483,0.21378 -0.461851,0.36301 -0.577742,0.62528 -0.01016,0.12715 0.01527,0.2833 -0.136104,0.33564 -0.447154,0.3211 -0.877924,0.70759 -1.083923,1.2321 -0.175928,0.27605 -0.07182,0.62027 -0.107153,0.92979 -0.02619,0.44528 0.04492,0.9015 0.286029,1.28415 0.484362,0.87775 1.559417,1.3224 2.532806,1.16673 0.809281,-0.0729 1.551755,-0.58639 1.909752,-1.31484 0.306972,-0.62387 0.358706,-1.37989 0.12932,-2.03631 -0.245361,-0.63013 -0.829963,-1.03218 -1.153998,-1.61063 -0.236374,-0.52103 -0.18551,-1.10918 -0.176562,-1.66554 0.02008,-0.13427 -0.0044,-0.30952 0.06488,-0.41682 0.331324,-0.0833 0.688255,-0.0866 1.005107,-0.21491 0.164687,-0.1887 0.06472,-0.47243 0.06223,-0.69769 -0.210463,-1.97753 -0.28066,-3.97002 -0.484796,-5.94993 -0.07238,-0.94646 -0.249042,-1.89512 -0.221001,-2.84347 0.07152,-0.42538 0.218707,-0.83491 0.370326,-1.23817 0.08601,-0.10145 0.139359,0.10177 0.16782,0.16072 0.07808,0.28319 0.167347,0.56141 0.286584,0.82969 0.129857,0.55545 0.420645,1.05515 0.553934,1.60879 0.153411,0.176 0.484965,0.0227 0.621345,0.24475 0.08533,0.12152 0.213955,0.2472 0.247271,0.38357 -0.110722,0.14461 -0.225522,0.29267 -0.24779,0.47852 -0.136763,0.20934 -0.0086,0.52571 0.213942,0.61043 0.183402,0.017 0.440865,0.0514 0.565145,-0.11382 0.126616,-0.60446 -0.07858,-1.21304 -0.198366,-1.80225 -0.288502,-1.50083 -0.8534,-2.93061 -1.141473,-4.43012 -0.06254,-0.31661 -0.251736,-0.65011 -0.598091,-0.70687 -0.517043,-0.17794 -1.064615,-0.27094 -1.563534,-0.49545 -0.127437,-0.10287 0.01209,-0.2608 0.122796,-0.30909 0.267406,-0.28883 0.272669,-0.71981 0.303985,-1.09024 0.03047,-0.63271 -0.366961,-1.28372 -0.989926,-1.4636 -0.244932,-0.0672 -0.542133,-0.16431 -0.778118,-0.0271 -0.275894,0.24729 -0.541655,0.51633 -0.763325,0.81332 -0.06606,0.0673 0.08959,0.19419 -0.0087,0.22473 -0.591842,-0.17405 -1.161372,-0.45427 -1.737838,-0.68516 -0.90714,-0.39833 -1.840351,-0.76864 -2.713246,-1.22558 -0.06672,-0.138 -0.128014,-0.29915 -0.293974,-0.34817 -0.466233,-0.17279 -0.968333,-0.2149 -1.419658,-0.42985 -0.780863,-0.3405 -1.553179,-0.70858 -2.300335,-1.11469 -0.266665,-0.17503 -0.468654,-0.43374 -0.684713,-0.6592 -0.0099,-0.003 -0.0205,-0.004 -0.03088,-0.003 z m 4.642482,2.88212 c 0.818297,0.25059 1.603599,0.61581 2.403355,0.92825 0.688825,0.28147 1.377063,0.56439 2.065623,0.84652 -0.02236,0.2896 -0.01376,0.62049 0.22279,0.82817 0.187375,0.15554 0.26175,0.45836 0.126413,0.66405 -0.578226,0.18009 -1.192847,0.028 -1.780705,-0.01 -0.433897,-0.0652 -0.888737,-0.0634 -1.299663,-0.22809 -0.584153,-0.45071 -0.99938,-1.07649 -1.534337,-1.58227 -0.233432,-0.24771 -0.37985,-0.58084 -0.335223,-0.92849 0.01749,-0.16433 -0.02213,-0.40922 0.131747,-0.51832 z"
         style="display:inline;fill:#ffffff;fill-opacity:1;stroke:#ffffff;stroke-width:0;stroke-linecap:round;stroke-linejoin:round;stroke-miterlimit:4;stroke-dasharray:none;stroke-opacity:1" />
    </g>
    <text
       xml:space="preserve"
       style="font-style:italic;font-variant:normal;font-weight:bold;font-stretch:normal;font-size:2.33962822px;line-height:1.25;font-family:C059;-inkscape-font-specification:'C059, Bold Italic';font-variant-ligatures:normal;font-variant-caps:normal;font-variant-numeric:normal;font-feature-settings:normal;text-align:start;letter-spacing:0px;word-spacing:0px;writing-mode:lr-tb;text-anchor:start;fill:#ffffff;fill-opacity:1;stroke:none;stroke-width:0.0584907"
       x="15.07733"
       y="32.796337"
       id="text838"><tspan
         sodipodi:role="line"
         x="15.07733"
         y="32.796337"
         style="font-style:italic;font-variant:normal;font-weight:bold;font-stretch:normal;font-size:2.33962822px;font-family:C059;-inkscape-font-specification:'C059, Bold Italic';font-variant-ligatures:normal;font-variant-caps:normal;font-variant-numeric:normal;font-feature-settings:normal;text-align:start;writing-mode:lr-tb;text-anchor:start;fill:#ffffff;fill-opacity:1;stroke-width:0.0584907"
         id="tspan840">TEGUL</tspan><tspan
         sodipodi:role="line"
         x="15.07733"
         y="35.720871"
         style="font-style:italic;font-variant:normal;font-weight:bold;font-stretch:normal;font-size:2.33962822px;font-family:C059;-inkscape-font-specification:'C059, Bold Italic';font-variant-ligatures:normal;font-variant-caps:normal;font-variant-numeric:normal;font-feature-settings:normal;text-align:start;writing-mode:lr-tb;text-anchor:start;fill:#ffffff;fill-opacity:1;stroke-width:0.0584907"
         id="tspan850">DIEVAS</tspan><tspan
         sodipodi:role="line"
         x="15.07733"
         y="38.645409"
         style="font-style:italic;font-variant:normal;font-weight:bold;font-stretch:normal;font-size:2.33962822px;font-family:C059;-inkscape-font-specification:'C059, Bold Italic';font-variant-ligatures:normal;font-variant-caps:normal;font-variant-numeric:normal;font-feature-settings:normal;text-align:start;writing-mode:lr-tb;text-anchor:start;fill:#ffffff;fill-opacity:1;stroke-width:0.0584907"
         id="tspan848">PALYDI</tspan><tspan
         sodipodi:role="line"
         x="15.07733"
         y="41.569942"
         style="font-style:italic;font-variant:normal;font-weight:bold;font-stretch:normal;font-size:2.33962822px;font-family:C059;-inkscape-font-specification:'C059, Bold Italic';font-variant-ligatures:normal;font-variant-caps:normal;font-variant-numeric:normal;font-feature-settings:normal;text-align:start;writing-mode:lr-tb;text-anchor:start;fill:#ffffff;fill-opacity:1;stroke-width:0.0584907"
         id="tspan852">TAVE</tspan><tspan
         sodipodi:role="line"
         x="15.07733"
         y="44.49448"
         style="font-style:italic;font-variant:normal;font-weight:bold;font-stretch:normal;font-size:2.33962822px;font-family:C059;-inkscape-font-specification:'C059, Bold Italic';font-variant-ligatures:normal;font-variant-caps:normal;font-variant-numeric:normal;font-feature-settings:normal;text-align:start;writing-mode:lr-tb;text-anchor:start;fill:#ffffff;fill-opacity:1;stroke-width:0.0584907"
         id="tspan51681">KOL VĖI</tspan><tspan
         sodipodi:role="line"
         x="15.07733"
         y="47.419014"
         style="font-style:italic;font-variant:normal;font-weight:bold;font-stretch:normal;font-size:2.33962822px;font-family:C059;-inkscape-font-specification:'C059, Bold Italic';font-variant-ligatures:normal;font-variant-caps:normal;font-variant-numeric:normal;font-feature-settings:normal;text-align:start;writing-mode:lr-tb;text-anchor:start;fill:#ffffff;fill-opacity:1;stroke-width:0.0584907"
         id="tspan51683">SUSITIKSIME</tspan></text>
  </g>
  <g
     inkscape:groupmode="layer"
     id="layer4"
     inkscape:label="Screw_Holes"
     style="display:inline">
    <circle
       transform="translate(0,-237)"
       style="display:inline;fill:none;fill-opacity:1;stroke:#ff0000;stroke-width:0.001;stroke-linecap:butt;stroke-miterlimit:4;stroke-dasharray:none;stroke-opacity:1"
       id="path11249"
       cx="12.915"
       cy="259.41501"
       r="0.99991131" />
    <circle
       transform="translate(0,-237)"
       style="display:inline;fill:none;fill-opacity:1;stroke:#ff0000;stroke-width:0.001;stroke-linecap:butt;stroke-miterlimit:4;stroke-dasharray:none;stroke-opacity:1"
       id="path11249-2"
       cx="33.485386"
       cy="259.41501"
       r="0.99991131" />
    <circle
       transform="translate(0,-237)"
       style="display:inline;fill:none;fill-opacity:1;stroke:#ff0000;stroke-width:0.001;stroke-linecap:butt;stroke-miterlimit:4;stroke-dasharray:none;stroke-opacity:1"
       id="path11249-6"
       cx="12.915"
       cy="279.98499"
       r="0.99991131" />
    <circle
       transform="translate(0,-237)"
       style="display:inline;fill:none;fill-opacity:1;stroke:#ff0000;stroke-width:0.001;stroke-linecap:butt;stroke-miterlimit:4;stroke-dasharray:none;stroke-opacity:1"
       id="path11249-64"
       cx="33.485001"
       cy="279.98499"
       r="0.99991131" />
  </g>
  <g
     inkscape:groupmode="layer"
     id="layer5"
     inkscape:label="External_Holes"
     style="display:inline">
    <ellipse
       style="display:inline;fill:none;fill-opacity:1;stroke:#ff0000;stroke-width:0.001;stroke-linecap:round;stroke-linejoin:round;stroke-miterlimit:4;stroke-dasharray:none;stroke-opacity:1"
       id="path12365"
       cx="12.5"
       cy="13.80025"
       rx="2.3999937"
       ry="2.3997438" />
    <circle
       style="display:inline;fill:none;fill-opacity:1;stroke:#ff0000;stroke-width:0.001;stroke-linecap:round;stroke-linejoin:round;stroke-miterlimit:4;stroke-dasharray:none;stroke-opacity:1"
       id="path12365-3"
       cx="33.900002"
       cy="13.8"
       r="2.3999887" />
    <circle
       style="fill:none;fill-opacity:1;stroke:#ff0000;stroke-width:0.001;stroke-linecap:round;stroke-linejoin:round;stroke-miterlimit:4;stroke-dasharray:none;stroke-opacity:1"
       id="path12365-4"
       cx="12.5"
       cy="51.599998"
       r="2.3999887" />
    <circle
       style="fill:none;fill-opacity:1;stroke:#ff0000;stroke-width:0.001;stroke-linecap:round;stroke-linejoin:round;stroke-miterlimit:4;stroke-dasharray:none;stroke-opacity:1"
       id="path12365-3-4"
       cx="33.900002"
       cy="51.599998"
       r="2.3999887" />
  </g>
</svg>
