<?xml version="1.0" encoding="UTF-8" standalone="no"?>
<!-- Created with Inkscape (http://www.inkscape.org/) -->

<svg
   xmlns:dc="http://purl.org/dc/elements/1.1/"
   xmlns:cc="http://creativecommons.org/ns#"
   xmlns:rdf="http://www.w3.org/1999/02/22-rdf-syntax-ns#"
   xmlns:svg="http://www.w3.org/2000/svg"
   xmlns="http://www.w3.org/2000/svg"
   xmlns:sodipodi="http://sodipodi.sourceforge.net/DTD/sodipodi-0.dtd"
   xmlns:inkscape="http://www.inkscape.org/namespaces/inkscape"
   width="24in"
   height="12in"
   viewBox="0 0 609.60001 304.80001"
   version="1.1"
   id="svg8"
   inkscape:version="0.92.2 2405546, 2018-03-11"
   sodipodi:docname="enclosure-ACRYLIC.svg">
  <defs
     id="defs2" />
  <sodipodi:namedview
     id="base"
     pagecolor="#ffffff"
     bordercolor="#666666"
     borderopacity="1.0"
     inkscape:pageopacity="0.0"
     inkscape:pageshadow="2"
     inkscape:zoom="0.29470486"
     inkscape:cx="657.48322"
     inkscape:cy="412.43737"
     inkscape:document-units="mm"
     inkscape:current-layer="layer1"
     showgrid="false"
     units="in"
     inkscape:window-width="1920"
     inkscape:window-height="1028"
     inkscape:window-x="0"
     inkscape:window-y="28"
     inkscape:window-maximized="1" />
  <metadata
     id="metadata5">
    <rdf:RDF>
      <cc:Work
         rdf:about="">
        <dc:format>image/svg+xml</dc:format>
        <dc:type
           rdf:resource="http://purl.org/dc/dcmitype/StillImage" />
        <dc:title></dc:title>
      </cc:Work>
    </rdf:RDF>
  </metadata>
  <g
     inkscape:label="Layer 1"
     inkscape:groupmode="layer"
     id="layer1"
     transform="translate(0,7.8000069)">
    <path
       style="fill:none;fill-opacity:1;stroke:#0000ff;stroke-width:0.0254;stroke-miterlimit:4;stroke-dasharray:none;stroke-opacity:1"
       d="m 188.54812,207.50228 c -2.84702,-0.76156 -4.58606,-1.96487 -6.14715,-4.25347 -2.53917,-3.7225 -2.72978,-8.94186 -0.45733,-12.52287 0.41643,-0.65623 1.59766,-1.84685 2.62495,-2.64583 1.65319,-1.28578 1.85062,-1.53302 1.71828,-2.15178 -0.12321,-0.57608 0.004,-0.8047 0.72514,-1.2994 1.40824,-0.96657 1.78836,-1.58775 1.79481,-2.93301 0.006,-1.20401 -0.0124,-1.23076 -0.95884,-1.40831 -0.5306,-0.0995 -1.2376,-0.35977 -1.57111,-0.5783 -0.36994,-0.24239 -1.04298,-0.36385 -1.7261,-0.31148 l -1.11971,0.0858 -1.39178,-9.65729 c -0.76548,-5.31151 -1.642,-11.30306 -1.94783,-13.31457 -0.43247,-2.84439 -0.55601,-4.90265 -0.55585,-9.26041 1.2e-4,-3.08173 0.12967,-6.55564 0.28789,-7.71981 0.53772,-3.95639 0.6798,-5.9461 0.45349,-6.3505 -0.12419,-0.22192 -0.28028,-1.0865 -0.34686,-1.92129 -0.0666,-0.83479 -0.44733,-2.94654 -0.84611,-4.69279 l -0.72507,-3.175 -2.64447,-0.20117 c -1.45446,-0.11065 -3.20045,-0.38493 -3.87997,-0.60951 -1.38514,-0.4578 -4.20398,-2.37465 -6.11732,-4.15986 l -1.2674,-1.18252 0.03,-3.27347 c 0.0218,-2.38013 -0.0841,-3.59093 -0.3882,-4.43674 -0.23,-0.6398 -1.01612,-3.37824 -1.74691,-6.08542 -0.73533,-2.72396 -1.50792,-5.057291 -1.72997,-5.224761 -0.22068,-0.166443 -2.86633,-1.297533 -5.87922,-2.513543 l -5.47799,-2.21093 -2.84427,0.018 -2.84427,0.018 v -1.39784 c 0,-1.79517 0.64809,-3.76713 1.48721,-4.52518 0.36243,-0.32743 0.76567,-0.59532 0.89609,-0.59532 0.13041,0 0.60303,0.53184 1.05026,1.18187 0.98,1.42437 2.19673,2.1593 8.73728,5.27747 3.25973,1.55407 5.2925,2.36939 6.08541,2.44081 0.65485,0.059 1.905,0.31823 2.77813,0.57612 1.36874,0.40428 1.62057,0.57933 1.82749,1.27037 0.22544,0.75287 0.80116,1.04904 9.4922,4.883154 5.08871,2.24492 9.38602,4.1205 9.54959,4.16796 0.19116,0.0555 0.20288,0.008 0.0328,-0.13229 -0.49744,-0.41096 -0.38726,-0.85086 0.34346,-1.37117 0.40185,-0.28614 1.2616,-1.18566 1.91055,-1.99894 1.15579,-1.44843 1.20759,-1.47868 2.53233,-1.47868 1.67652,0 2.82188,0.37836 4.28415,1.41522 0.79197,0.56156 1.38037,1.30588 1.95489,2.47289 0.77727,1.57886 0.81471,1.79567 0.68944,3.99265 -0.13906,2.43897 -0.61173,3.77903 -1.53668,4.35667 -0.28647,0.1789 -0.52025,0.44546 -0.51952,0.59236 0.001,0.24826 2.30225,0.98792 5.42263,1.7431 1.77198,0.42885 3.13448,1.19999 3.63031,2.05465 0.2242,0.38647 0.61202,1.83376 0.86183,3.21621 0.24979,1.38245 1.08969,4.59713 1.86643,7.14375 1.7266,5.66084 2.76956,9.74404 2.76956,10.84286 0,0.4538 0.19908,1.20613 0.44239,1.67185 0.3025,0.579 0.4805,1.74417 0.5629,3.68475 l 0.1205,2.838 -0.71241,0.27086 c -0.39183,0.14897 -1.16246,0.27085 -1.71252,0.27085 -1.12541,0 -1.70387,-0.486 -2.17001,-1.82316 -0.22267,-0.63873 -0.22352,-0.94 -0.003,-1.16021 0.1636,-0.1636 0.29746,-0.49571 0.29746,-0.73803 0,-0.24231 0.22903,-0.73173 0.50895,-1.08759 0.50652,-0.64394 0.5058,-0.65107 -0.15147,-1.49089 -0.5786,-0.73932 -0.81737,-0.84387 -1.92731,-0.84387 h -1.26688 l -0.15989,-1.35002 c -0.0879,-0.74251 -0.46069,-1.8633 -0.82833,-2.49063 -0.36764,-0.62733 -0.83907,-1.87203 -1.04762,-2.76599 -0.20854,-0.89396 -0.50384,-1.77559 -0.65621,-1.95918 -0.15237,-0.1836 -0.41181,-0.96225 -0.57653,-1.73035 -0.16473,-0.76809 -0.38789,-1.29575 -0.4959,-1.17257 -0.25942,0.29582 -1.05543,3.04141 -1.38913,4.79136 -0.21424,1.12351 -0.10839,2.73307 0.54808,8.33438 0.44748,3.81808 1.11914,11.68338 1.49259,17.47846 0.37345,5.79507 0.79333,11.13937 0.93308,11.87622 0.34903,1.84047 0.31854,3.57766 -0.067,3.81593 -0.32261,0.19939 -1.88973,0.53984 -3.68855,0.80134 l -0.96689,0.14056 -0.18406,2.0793 c -0.19156,2.16399 -0.0323,4.15134 0.47401,5.91397 0.19374,0.67449 0.98898,1.78057 2.29313,3.18943 1.10213,1.19064 2.34398,2.86156 2.77211,3.72993 0.62483,1.26732 0.79788,2.01524 0.89034,3.84803 0.17764,3.52115 -0.79398,6.33141 -3.007,8.69731 -1.42306,1.52136 -3.19399,2.51297 -5.4287,3.03973 -2.10618,0.49645 -4.16636,0.49091 -6.0625,-0.0163 z m 6.10177,-0.52371 c 3.58488,-0.81537 6.27815,-3.37904 7.45304,-7.09443 0.39256,-1.24139 0.48772,-2.166 0.41129,-3.99631 -0.0866,-2.07325 -0.20995,-2.58658 -0.95383,-3.96875 -0.46992,-0.87312 -1.66891,-2.43657 -2.66443,-3.47433 -1.24425,-1.29704 -1.94427,-2.2808 -2.23948,-3.1472 -0.54928,-1.61205 -0.78305,-4.8008 -0.51351,-7.00451 l 0.21036,-1.71979 1.19062,-0.18743 c 3.69148,-0.58111 3.56448,-0.52875 3.65791,-1.50802 0.0473,-0.49593 -0.0399,-1.62703 -0.19387,-2.51354 -0.15394,-0.88652 -0.58261,-6.31481 -0.95261,-12.06289 -0.37,-5.74807 -1.03417,-13.52727 -1.47594,-17.28711 -0.55121,-4.69126 -0.7464,-7.30616 -0.62212,-8.33437 0.0996,-0.82407 0.27088,-1.61737 0.38062,-1.76289 0.10974,-0.14552 0.41907,-1.12779 0.68741,-2.18281 0.67146,-2.63994 1.31897,-2.52159 1.96454,0.35907 0.15851,0.70731 0.44422,1.46654 0.63491,1.68717 0.19068,0.22063 0.42701,0.93693 0.52516,1.59178 0.0982,0.65484 0.52755,1.86429 0.95421,2.68766 0.42667,0.82337 0.85366,1.98423 0.94888,2.57969 0.17166,1.07353 0.18275,1.08265 1.31722,1.08265 1.06109,0 1.20455,0.0879 1.97739,1.21115 l 0.8333,1.21115 -0.556,0.59184 c -0.3058,0.32551 -0.55601,0.82824 -0.55601,1.11718 0,0.28894 -0.13051,0.65586 -0.29003,0.81537 -0.21032,0.21032 -0.16567,0.5521 0.16244,1.24355 0.24886,0.52443 0.58773,0.96722 0.75305,0.98397 0.44613,0.0452 1.28095,-0.03 1.95423,-0.176 0.55709,-0.12084 0.59531,-0.26526 0.59531,-2.2491 0,-1.43627 -0.17468,-2.63852 -0.54164,-3.72783 -0.29791,-0.88432 -0.49526,-1.74377 -0.43857,-1.90988 0.13759,-0.40313 -1.36492,-6.16945 -2.97327,-11.41075 -0.7151,-2.33041 -1.51038,-5.42774 -1.76726,-6.88294 -0.57807,-3.27464 -1.00579,-3.79718 -3.67196,-4.48603 -1.01865,-0.26318 -2.83435,-0.77451 -4.0349,-1.13628 -1.96912,-0.59338 -2.18281,-0.72189 -2.18281,-1.31282 0,-0.42497 0.17964,-0.70202 0.51146,-0.78879 0.79929,-0.20902 1.42008,-1.85613 1.55304,-4.12062 0.0904,-1.53965 0.006,-2.35503 -0.33633,-3.2516 -0.25135,-0.65815 -0.76791,-1.56614 -1.14792,-2.01775 -0.96191,-1.14316 -3.05105,-2.06264 -4.69371,-2.06582 -1.18248,-0.002 -1.40962,0.0921 -1.98437,0.82484 -0.35698,0.45509 -1.17063,1.33141 -1.80812,1.94738 -0.73983,0.71486 -1.05086,1.18683 -0.85989,1.30486 0.40266,0.24885 0.3783,0.66908 -0.0483,0.83277 -0.32515,0.12477 -18.72908,-7.835151 -19.41429,-8.396914 -0.17317,-0.14197 -0.35176,-0.512967 -0.39688,-0.82446 -0.0634,-0.43781 -0.4357,-0.67377 -1.6404,-1.03968 -0.8571,-0.26033 -2.04773,-0.51625 -2.64583,-0.56871 -0.67649,-0.0593 -3.1028,-1.0518 -6.42018,-2.62612 -2.93299,-1.3919 -5.79553,-2.82289 -6.36119,-3.17998 -1.02211,-0.64524 -2.53247,-2.18761 -2.8096,-2.86917 -0.21926,-0.53924 -1.42221,0.89468 -1.75457,2.09147 -0.15149,0.54546 -0.27611,1.468 -0.27694,2.05008 l -0.002,1.05834 h 2.57972 2.57972 l 5.82084,2.33175 c 3.20146,1.28246 5.95476,2.47308 6.11844,2.64583 0.16368,0.172743 0.90473,2.582294 1.64676,5.354544 0.74204,2.77226 1.53085,5.55543 1.75292,6.18483 0.27647,0.78359 0.40375,2.15143 0.40375,4.33877 v 3.19439 l 1.38907,1.3048 c 1.70302,1.5997 3.92053,3.11115 5.43771,3.70633 0.64703,0.25382 2.33162,0.51953 3.90363,0.61572 1.52096,0.0931 2.86484,0.29991 2.98637,0.45966 0.28527,0.37495 1.59589,6.53078 1.73172,8.13366 0.0573,0.67574 0.21083,1.4193 0.34125,1.65235 0.24356,0.43522 0.0794,2.91286 -0.44016,6.64403 -0.16211,1.16417 -0.29287,4.67651 -0.29057,7.80521 0.004,5.39792 0.065,6.08731 1.19468,13.49375 0.65478,4.29286 1.50937,10.14643 1.89908,13.00793 l 0.70858,5.20273 0.8532,-0.13846 c 0.52571,-0.0853 1.22669,0.0388 1.82623,0.32327 0.53516,0.25396 1.35452,0.53932 1.8208,0.63415 0.83138,0.16908 0.8493,0.20374 0.92591,1.79119 l 0.0781,1.61878 -1.3179,1.13522 c -1.10847,0.95481 -1.2957,1.24622 -1.17818,1.83382 0.12132,0.60658 -0.0291,0.80703 -1.14147,1.52161 -1.85456,1.19132 -3.13446,2.61388 -3.97934,4.42288 -0.66694,1.42799 -0.74059,1.86665 -0.73304,4.36563 0.007,2.27467 0.11988,3.05832 0.62359,4.32426 1.2251,3.07894 3.65537,5.22377 6.9097,6.09813 1.92143,0.51625 3.85166,0.51843 6.10071,0.007 z m -11.21073,-92.09101 c -0.0642,-0.0642 -1.52486,-0.2315 -3.24592,-0.37178 -1.72106,-0.14028 -3.90552,-0.39024 -4.85436,-0.55547 -1.5636,-0.27229 -1.87086,-0.43939 -3.28111,-1.78437 -0.85578,-0.81617 -2.09286,-2.21509 -2.74908,-3.1087 -0.65623,-0.89363 -1.47214,-1.7519 -1.81316,-1.90727 -0.34101,-0.15538 -0.98131,-0.91251 -1.4229,-1.68253 -0.60909,-1.06211 -0.80348,-1.73113 -0.80536,-2.77186 -0.003,-1.68127 0.36609,-2.729211 0.96135,-2.729211 0.24627,0 4.71801,1.756011 9.93721,3.902241 l 9.48945,3.90223 -0.0542,1.0587 c -0.0614,1.19921 0.21594,1.83522 1.20298,2.75847 0.49903,0.46678 0.68576,0.90824 0.68576,1.62125 0,0.5389 -0.14883,1.09763 -0.33073,1.24162 -0.34151,0.27034 -3.51252,0.63405 -3.7199,0.42668 z m 3.25166,-0.75276 c 0.54893,-0.33925 0.25198,-1.52742 -0.64306,-2.57307 -0.70168,-0.81975 -0.93121,-1.34681 -0.99219,-2.27826 l -0.0793,-1.21179 -9.12813,-3.77671 c -5.02047,-2.07718 -9.26893,-3.77956 -9.44102,-3.78306 -0.41878,-0.009 -0.65725,0.81938 -0.65725,2.28181 0,0.86075 0.21547,1.55362 0.75696,2.4341 0.41633,0.67697 0.9918,1.33622 1.27882,1.46501 0.28703,0.1288 1.23624,1.17873 2.10936,2.3332 0.87313,1.15446 2.07389,2.55149 2.66836,3.10451 0.88223,0.82071 1.39469,1.06014 2.78851,1.30286 0.93921,0.16356 3.18183,0.41782 4.98361,0.56503 1.80178,0.14721 3.31136,0.30304 3.35462,0.34631 0.14166,0.14165 2.7242,-0.039 3.00073,-0.20994 z"
       id="path3802"
       inkscape:connector-curvature="0" />
    <text
       xml:space="preserve"
       style="font-style:italic;font-variant:normal;font-weight:bold;font-stretch:normal;font-size:10.58333302px;line-height:1.25;font-family:C059;-inkscape-font-specification:'C059, Bold Italic';font-variant-ligatures:normal;font-variant-caps:normal;font-variant-numeric:normal;font-feature-settings:normal;text-align:start;letter-spacing:0px;word-spacing:0px;writing-mode:lr-tb;text-anchor:start;fill:none;fill-opacity:1;stroke:#0000ff;stroke-width:0.0254;stroke-miterlimit:4;stroke-dasharray:none;stroke-opacity:1;"
       x="128.87317"
       y="219.53181"
       id="text3796"><tspan
         sodipodi:role="line"
         id="tspan3794"
         x="128.87317"
         y="219.53181"
         style="font-style:italic;font-variant:normal;font-weight:bold;font-stretch:normal;font-size:10.58333302px;font-family:C059;-inkscape-font-specification:'C059, Bold Italic';font-variant-ligatures:normal;font-variant-caps:normal;font-variant-numeric:normal;font-feature-settings:normal;text-align:start;writing-mode:lr-tb;text-anchor:start;stroke-width:0.0254;fill:none;stroke-miterlimit:4;stroke-dasharray:none;stroke:#0000ff;stroke-opacity:1;">PASIRINK KAS TIESĄ</tspan></text>
    <text
       xml:space="preserve"
       style="font-style:normal;font-weight:normal;font-size:10.58333302px;line-height:1.25;font-family:sans-serif;letter-spacing:0px;word-spacing:0px;fill:#000000;fill-opacity:1;stroke:none;stroke-width:0.26458332"
       x="224.89583"
       y="36.574398"
       id="text3800"><tspan
         sodipodi:role="line"
         id="tspan3798"
         x="224.89583"
         y="45.938168"
         style="stroke-width:0.26458332" /></text>
    <rect
       style="fill:none;fill-opacity:0;stroke-width:0.0254;stroke-miterlimit:4;stroke-dasharray:none;stroke:#ff0000;stroke-opacity:1"
       id="rect4653"
       width="153.74669"
       height="149.70662"
       x="111.99941"
       y="82.203529" />
    <path
       style="fill:#1a1a1a;fill-opacity:1;stroke:#ff0000;stroke-width:0.01439624;stroke-miterlimit:4;stroke-dasharray:none;stroke-opacity:1"
       d="m 722.44792,882.62607 v -23.31891 h 2.83321 c 2.21456,0 2.84987,-0.0434 2.9095,-0.19881 0.042,-0.10934 0.12366,-0.64107 0.18154,-1.18162 l 0.10525,-0.98281 -1.51508,-0.0609 c -2.36544,-0.095 -2.36894,-0.10759 -1.23005,-4.42428 l 0.7451,-2.8241 1.61444,-1.53197 c 0.88794,-0.84259 1.62828,-1.51741 1.64519,-1.49961 0.26303,0.27688 4.41161,9.37632 4.37873,9.60426 -0.0726,0.50344 -0.66937,0.6958 -2.16612,0.69821 l -1.37045,0.002 -0.0841,0.48737 c -0.0462,0.26806 -0.12891,0.80792 -0.18368,1.19969 l -0.0996,0.71231 h 7.574 c 6.15163,0 7.58833,-0.0373 7.65029,-0.19881 0.042,-0.10934 0.12453,-0.6492 0.18348,-1.19968 l 0.10718,-1.00088 -1.17966,-0.003 c -1.49387,-0.004 -2.28474,-0.33385 -2.81467,-1.17332 -0.47687,-0.75541 -6.55836,-13.83624 -6.50344,-13.98842 0.0689,-0.19085 7.19305,-6.73588 7.99065,-7.34106 1.14184,-0.86638 2.53646,-1.45555 3.97179,-1.67792 l 1.27467,-0.19748 0.10135,-0.66839 c 0.0557,-0.36761 0.10636,-0.88771 0.11247,-1.15576 l 0.0111,-0.48737 h -6.05613 -6.05614 l -0.10337,0.86227 c -0.0569,0.47426 -0.13943,1.01411 -0.1835,1.19969 -0.0781,0.32887 -0.0492,0.33741 1.14264,0.33741 1.09692,0 1.26049,0.0377 1.58933,0.36658 0.39631,0.39631 0.37469,0.63622 -0.11563,1.28299 -0.32315,0.42626 -10.96341,10.34566 -11.0281,10.28097 -0.0498,-0.0498 2.60046,-9.97285 2.86164,-10.71474 0.30396,-0.86339 0.76079,-1.08076 2.46915,-1.1749 l 1.50921,-0.0832 0.0981,-0.91612 c 0.0539,-0.50387 0.13147,-1.03422 0.17233,-1.17856 0.0699,-0.24695 -0.29778,-0.26243 -6.23416,-0.26243 h -6.30846 l 7.2e-4,-7.46055 7.2e-4,-7.46055 2.36116,-0.0326 c 5.39199,-0.0745 11.48903,-1.2211 16.65976,-3.13305 3.56144,-1.31689 7.93856,-3.80775 10.91056,-6.2088 3.90325,-3.15339 8.05606,-8.27617 10.47307,-12.91922 3.07919,-5.91512 4.49776,-11.71473 4.68903,-19.17047 0.1607,-6.26428 -0.44557,-11.49818 -1.763,-15.21984 -1.71175,-4.83562 -6.04848,-11.23574 -12.14361,-17.92149 -4.03695,-4.42813 -6.75606,-7.97846 -7.98915,-10.43139 -0.61445,-1.22229 -1.41137,-4.29271 -1.97293,-7.6014 l -0.0955,-0.56235 H 873.90153 1004.2242 V 814.019 905.94497 H 863.33608 722.44792 Z M 950.88201,865.7067 c 0.66196,-0.38794 2.20561,-1.94201 2.20561,-2.2205 0,-0.22073 -0.65841,-1.32731 -0.79051,-1.32863 -0.0636,-6e-4 -0.37472,0.17026 -0.6913,0.37977 -0.31658,0.2095 -0.8163,0.41997 -1.11048,0.46771 -0.44124,0.0716 -0.6024,0.0193 -0.92077,-0.29912 -0.65968,-0.65968 -0.42707,-2.04334 0.50835,-3.02387 0.3681,-0.38585 0.44423,-0.61529 0.53488,-1.61207 l 0.1057,-1.1622 -0.8799,-0.004 c -1.89123,-0.008 -2.7325,-0.50998 -3.11227,-1.8582 -0.11814,-0.4194 -1.38228,-6.31296 -2.80919,-13.09681 l -2.59439,-12.33428 h -1.31035 -1.31034 l -6.85496,11.43451 c -3.77024,6.28898 -7.19181,11.92629 -7.60348,12.52735 -1.31727,1.92325 -2.92269,3.12999 -4.38307,3.2946 -0.719,0.081 -0.70355,0.0528 -0.90014,1.64848 l -0.097,0.7873 h 5.84322 5.84322 l 0.10226,-0.77083 c 0.0562,-0.42396 0.14086,-0.96382 0.18802,-1.19969 l 0.0858,-0.42885 -0.956,-9e-4 c -1.21951,-10e-4 -2.0205,-0.22524 -2.49298,-0.69773 -0.59521,-0.59521 -0.42064,-1.33301 0.88069,-3.7219 l 1.10617,-2.03064 4.55883,0.0389 4.55883,0.0389 0.40617,2.09945 c 0.57333,2.9635 0.59328,3.14021 0.39815,3.52747 -0.249,0.49419 -1.0302,0.72189 -2.52168,0.73501 l -1.29743,0.0114 -0.10051,0.93726 c -0.0553,0.51549 -0.13393,1.05534 -0.17478,1.19968 -0.0699,0.24685 0.28781,0.26243 6.02475,0.26243 h 6.09906 l -0.46262,0.52689 c -0.64564,0.73534 -0.88781,1.256 -1.04222,2.24065 -0.26654,1.6997 0.35071,3.14407 1.62574,3.80416 0.91467,0.47355 2.3668,0.39872 3.34093,-0.17216 z m -154.9533,-6.24327 c 5.10108,-1.26674 8.2038,-5.11732 7.88949,-9.79109 -0.15032,-2.23521 -0.89095,-3.91547 -2.31162,-5.24434 -1.24056,-1.1604 -3.06422,-2.05059 -7.30469,-3.56566 -3.62998,-1.29696 -4.34811,-1.74064 -4.9664,-3.06842 -0.87272,-1.87415 -0.0486,-4.10001 1.88906,-5.102 0.67989,-0.35159 2.23089,-0.67295 3.25968,-0.6754 4.2794,-0.0102 7.12838,2.89346 7.49426,7.63812 0.10256,1.33003 0.0321,1.26463 1.55452,1.44354 l 0.81852,0.0962 0.86483,-5.22737 c 0.47565,-2.87505 0.86367,-5.27798 0.86227,-5.33984 -10e-4,-0.0619 -0.42273,-0.11247 -0.93628,-0.11247 h -0.93373 l -1.05325,1.04094 -1.05325,1.04094 -0.878,-0.66797 c -1.05916,-0.80578 -2.67241,-1.59661 -3.99573,-1.95873 -0.71573,-0.19586 -1.53262,-0.26731 -3.07419,-0.26888 -2.49871,-0.003 -3.40628,0.19843 -5.46709,1.21068 -5.34707,2.62645 -7.07647,9.58198 -3.39525,13.65539 1.31375,1.45371 2.20916,1.91632 7.36273,3.80391 4.3325,1.58686 5.51171,2.59392 5.51057,4.7061 -0.002,2.84729 -2.62817,4.58278 -6.63528,4.38412 -2.448,-0.12137 -4.17749,-0.84971 -5.62752,-2.36992 -1.40333,-1.47124 -2.29921,-3.88039 -2.31516,-6.22576 l -0.005,-0.76917 -1.08218,-0.16062 c -0.59519,-0.0883 -1.11141,-0.13138 -1.14715,-0.0956 -0.0357,0.0357 -0.49057,2.47862 -1.01074,5.42862 -0.52018,2.95001 -0.97309,5.51548 -1.00649,5.70106 -0.058,0.32209 -0.0157,0.33736 0.93073,0.33635 l 0.99144,-10e-4 1.11117,-1.26473 1.11117,-1.26473 0.83832,0.64717 c 1.61135,1.24394 3.04813,1.90107 4.94041,2.25956 1.63964,0.31062 5.08657,0.19918 6.77007,-0.21888 z m 115.31985,0 c 3.73505,-0.92752 6.53923,-3.33249 7.50246,-6.43439 0.66586,-2.14428 0.48614,-4.7555 -0.45572,-6.62131 -1.17782,-2.33324 -3.08144,-3.53656 -8.77129,-5.54453 -2.62879,-0.9277 -3.74431,-1.45896 -4.30253,-2.04901 -1.28875,-1.36221 -1.36014,-3.60002 -0.15963,-5.00255 0.67209,-0.78519 1.54109,-1.28117 2.73963,-1.56365 3.57993,-0.84374 6.9927,0.65721 8.46785,3.72419 0.50918,1.0586 0.97766,3.11594 0.97766,4.29335 0,0.63113 0.0564,0.6623 1.50587,0.83265 l 0.81852,0.0962 0.86482,-5.22737 c 0.47565,-2.87505 0.86367,-5.27798 0.86228,-5.33984 -0.002,-0.0619 -0.4334,-0.11247 -0.95999,-0.11247 h -0.95745 l -1.02953,1.04678 -1.02954,1.04678 -0.89977,-0.68255 c -1.82346,-1.38327 -3.80221,-2.10025 -6.23478,-2.25912 -4.68127,-0.30573 -8.80429,1.84089 -10.63606,5.53758 -1.74836,3.52834 -1.16686,7.44871 1.46219,9.85775 1.20288,1.10223 2.44987,1.72924 5.81116,2.92197 5.30709,1.88319 6.5233,2.8338 6.5233,5.09875 0,1.17541 -0.22742,1.77853 -0.98815,2.62056 -1.15835,1.28216 -3.07753,1.88356 -5.61013,1.758 -4.64503,-0.23029 -7.58546,-3.19456 -7.89867,-7.9627 l -0.0925,-1.40858 -1.06054,-0.1574 c -0.5833,-0.0866 -1.09077,-0.12718 -1.12772,-0.0902 -0.037,0.037 -0.49359,2.47984 -1.01475,5.42863 -0.52116,2.94878 -0.98373,5.51326 -1.02792,5.69884 -0.0773,0.32462 -0.0419,0.3374 0.93472,0.33697 l 1.0151,-4.5e-4 1.10158,-1.26635 1.1016,-1.26635 0.73377,0.58001 c 1.5311,1.21027 3.19207,1.97406 5.06412,2.32871 1.63964,0.31063 5.08656,0.19919 6.77007,-0.21887 z m -153.81557,-0.35508 c 0.042,-0.10934 0.12355,-0.64013 0.18131,-1.17953 l 0.10503,-0.98072 -1.17751,-0.0691 c -2.0213,-0.11867 -2.80655,-0.76035 -2.46582,-2.01498 0.0867,-0.31928 0.62657,-1.42404 1.19968,-2.45502 l 1.04203,-1.87451 4.56656,-0.0396 4.56656,-0.0396 0.47878,2.46595 c 0.26333,1.35628 0.45697,2.6496 0.43031,2.87406 -0.089,0.74958 -0.70348,1.031 -2.37772,1.08897 -1.67379,0.058 -1.56002,-0.0401 -1.72362,1.48574 l -0.1005,0.93725 h 7.57106 7.57105 l 0.0841,-0.48737 c 0.0463,-0.26805 0.12759,-0.79912 0.18075,-1.18014 l 0.0966,-0.69277 -1.26415,-0.0663 c -1.47542,-0.0774 -2.11776,-0.37504 -2.53061,-1.17243 -0.14946,-0.28867 -1.45846,-6.15964 -2.9089,-13.04658 -1.45043,-6.88695 -2.67205,-12.63982 -2.71471,-12.78416 -0.0663,-0.22428 -0.26684,-0.26181 -1.37961,-0.25814 l -1.30205,0.004 -1.1749,1.98269 c -0.6462,1.09048 -3.95283,6.59652 -7.34808,12.23565 -5.21138,8.65551 -6.31842,10.39978 -7.1054,11.19534 -1.05872,1.07027 -2.48956,1.8706 -3.3443,1.8706 h -0.55457 l -0.13972,1.19969 -0.13973,1.19968 h 5.80088 c 4.6791,0 5.81562,-0.0384 5.87716,-0.19881 z m 79.43501,-0.0791 c 0,-0.15286 0.0426,-0.68535 0.0946,-1.18331 l 0.0946,-0.90539 -1.81385,-0.0539 c -2.06436,-0.0613 -2.3376,-0.19005 -2.30394,-1.0855 0.0162,-0.43031 5.65661,-21.83574 5.96688,-22.64428 0.33207,-0.86538 2.76465,-0.65619 3.97068,0.34145 0.63464,0.52499 1.37151,1.86464 1.65827,3.01477 0.12993,0.52115 0.2006,1.60412 0.19195,2.94174 l -0.0137,2.11694 1.12571,0.0952 c 0.61914,0.0523 1.13762,0.0782 1.15217,0.0575 0.0435,-0.062 1.72937,-11.11891 1.72629,-11.32222 -0.002,-0.1485 -2.70812,-0.18745 -13.02179,-0.18745 H 822.677 l -1.39823,5.28612 c -0.76902,2.90736 -1.40567,5.34459 -1.41477,5.41606 -0.0178,0.13967 2.01724,0.88547 2.12422,0.77849 0.0353,-0.0353 0.38622,-0.77116 0.77981,-1.63524 1.68091,-3.6902 3.63445,-6.19648 5.45899,-7.00356 0.74433,-0.32925 2.25965,-0.53347 2.85313,-0.38452 0.30931,0.0776 0.38926,0.18882 0.38926,0.54135 0,0.62157 -5.81651,22.31937 -6.13061,22.86954 -0.32986,0.57776 -1.12824,0.79656 -2.96544,0.81271 l -1.37306,0.0121 -0.097,0.7873 c -0.0533,0.43301 -0.13252,0.97287 -0.17595,1.19968 l -0.079,0.4124 h 8.1098 c 7.79586,-10e-6 8.1098,-0.0108 8.1098,-0.27793 z m 23.5975,0.16248 c 0.0392,-0.0635 0.11942,-0.60336 0.17818,-1.19969 l 0.10684,-1.08424 h -1.44882 c -0.92592,0 -1.63651,-0.0784 -1.96886,-0.21729 -0.46389,-0.19382 -0.52005,-0.27874 -0.52005,-0.78637 0,-0.60909 5.59705,-21.75587 5.92835,-22.39852 0.28219,-0.54738 0.85187,-0.75334 2.35263,-0.85057 1.10735,-0.0717 1.31651,-0.12592 1.31651,-0.34102 0,-0.14065 0.0434,-0.67115 0.0965,-1.17889 l 0.0965,-0.92316 -7.55291,0.0389 -7.55291,0.0389 -0.0966,0.59984 c -0.0531,0.32992 -0.13511,0.85291 -0.18215,1.1622 l -0.0855,0.56235 1.45269,0.008 c 0.79897,0.005 1.68887,0.089 1.97755,0.18745 0.45546,0.15532 0.53088,0.25107 0.57038,0.72413 0.0451,0.54069 -5.22806,20.73503 -5.79011,22.17392 -0.33809,0.86551 -0.7644,1.06946 -2.43446,1.16468 l -1.30542,0.0744 -0.13742,1.17997 -0.13743,1.17997 h 7.53261 c 4.14294,0 7.56473,-0.0519 7.60397,-0.11545 z m 29.84634,-4.84514 c 0.73044,-2.72832 1.26933,-5.01141 1.1975,-5.07354 -0.13585,-0.11751 -1.57668,-0.46313 -1.9307,-0.46313 -0.11145,0 -0.45545,0.42176 -0.76444,0.93725 -1.96013,3.27012 -4.50127,5.50408 -7.5578,6.64415 -1.03086,0.38451 -1.33116,0.42404 -3.59906,0.47377 -2.81183,0.0617 -3.19396,-0.0317 -3.26936,-0.79889 -0.0365,-0.37106 1.36006,-5.90386 2.46557,-9.76813 l 0.22523,-0.78729 h 0.86674 c 2.70219,0 3.84358,1.64629 3.48299,5.02369 -0.0704,0.65982 -0.1109,1.22116 -0.0899,1.24742 0.062,0.0774 2.19211,0.35221 2.25362,0.2907 0.0309,-0.0309 0.8396,-3.01389 1.79704,-6.62879 0.95744,-3.61489 1.77351,-6.65776 1.81349,-6.76193 0.0707,-0.18436 -0.0984,-0.22836 -1.71,-0.4447 l -0.56235,-0.0755 -0.50687,1.11716 c -0.64371,1.41873 -1.68265,2.5947 -2.75719,3.12086 -0.86691,0.42448 -2.5797,0.76378 -3.45266,0.68396 l -0.5166,-0.0472 1.14969,-4.28589 c 1.43846,-5.36235 1.54685,-5.65462 2.19807,-5.92672 0.59756,-0.24968 3.27516,-0.28213 4.66517,-0.0565 2.94079,0.47728 4.10822,2.07792 4.3453,5.95777 l 0.0939,1.5371 h 1.14288 1.14288 l 0.79008,-4.91121 c 0.43455,-2.70117 0.78736,-4.96183 0.78403,-5.02369 -0.003,-0.0619 -5.56616,-0.11247 -12.36179,-0.11247 -10.1227,0 -12.36951,0.0359 -12.43202,0.19881 -0.042,0.10934 -0.12369,0.64149 -0.18164,1.18256 l -0.10535,0.98375 1.66336,0.0569 c 1.46213,0.05 1.70262,0.0962 1.98794,0.38151 0.30391,0.30391 0.31354,0.38018 0.15119,1.19737 -0.22173,1.11605 -5.35175,20.27478 -5.69079,21.25296 -0.36711,1.05918 -0.77495,1.30334 -2.34015,1.40099 -0.71368,0.0445 -1.3217,0.12193 -1.35117,0.17201 -0.0295,0.0501 -0.10183,0.58031 -0.1608,1.17828 l -0.10722,1.08721 h 12.95153 12.95151 z"
       id="path4661"
       inkscape:connector-curvature="0"
       transform="matrix(0.26458333,0,0,0.26458333,0,-7.8000069)" />
    <path
       style="fill:#1a1a1a;fill-opacity:1;stroke:#ff0000;stroke-width:0.01439624;stroke-miterlimit:4;stroke-dasharray:none;stroke-opacity:1"
       d="m 423.42611,814.01908 v -91.92604 h 144.33726 c 79.38549,0 144.33726,0.0543 144.33726,0.12078 0,0.23296 -1.60667,2.06056 -2.41134,2.74292 -0.44705,0.37909 -1.4539,1.15183 -2.23745,1.71719 -2.17276,1.56773 -2.8209,2.14052 -3.24938,2.87168 -0.37691,0.64314 -0.38798,0.72597 -0.27344,2.04494 0.0657,0.75606 0.11418,1.58994 0.10784,1.85307 -0.0305,1.26516 -1.25346,2.61064 -5.28274,5.81203 -6.25047,4.96621 -9.90577,8.73809 -11.98019,12.3623 -7.97123,13.92649 -6.67417,33.24623 3.15454,46.9872 5.15869,7.21204 10.59166,11.24565 19.04892,14.14248 4.14254,1.41893 9.45488,2.46579 12.53328,2.46983 l 0.93725,0.001 v 7.49804 7.49804 h -1.33263 -1.33261 l -0.0996,0.71231 c -0.0548,0.39178 -0.13742,0.93163 -0.18369,1.19969 l -0.0841,0.48737 1.40383,0.008 c 1.86016,0.0112 2.43824,0.20791 2.50031,0.85072 0.0275,0.28497 -1.09798,4.79031 -2.73476,10.94714 -3.35556,12.6222 -3.03813,11.49747 -3.35165,11.87539 -0.28511,0.34366 -1.42074,0.61193 -2.59038,0.61193 h -0.71615 l -0.0882,0.59985 c -0.0485,0.32991 -0.12784,0.86977 -0.17633,1.19968 l -0.0882,0.59985 h 4.43749 4.43751 l -0.038,23.28142 -0.038,23.28141 -149.47342,0.0376 -149.47341,0.0376 z m 136.87309,45.45263 c 3.0441,-0.76067 5.50326,-2.47526 6.77749,-4.72546 1.85718,-3.27962 1.42057,-7.71156 -0.99613,-10.11148 -1.30869,-1.29961 -3.43004,-2.3595 -7.71891,-3.85659 -2.5965,-0.90635 -3.46937,-1.34317 -4.11746,-2.06052 -0.71944,-0.79633 -0.95265,-1.42 -0.94875,-2.53713 0.004,-1.211 0.35271,-1.97661 1.26529,-2.7799 0.92542,-0.81459 2.09305,-1.24735 3.63636,-1.34775 2.22811,-0.14495 4.04871,0.4448 5.51766,1.78734 1.50217,1.37289 2.19585,2.90286 2.50296,5.52043 l 0.17576,1.49801 0.53499,0.10219 c 0.29424,0.0562 0.80131,0.10756 1.12682,0.11413 l 0.59183,0.012 0.86097,-5.09866 c 0.47353,-2.80427 0.86516,-5.18302 0.87028,-5.28612 0.007,-0.13277 -0.29282,-0.18745 -1.02636,-0.18745 h -1.03569 l -0.96467,1.04193 -0.96467,1.04193 -0.88639,-0.67218 c -1.86027,-1.41069 -3.80649,-2.10796 -6.3132,-2.26181 -3.37656,-0.20724 -6.33067,0.77436 -8.53441,2.83585 -1.23892,1.15895 -2.07358,2.4461 -2.54133,3.91908 -1.05397,3.31895 -0.43934,6.20688 1.79256,8.42257 1.3118,1.30228 2.31188,1.8324 5.78732,3.06776 5.43021,1.93018 6.74824,2.92461 6.74824,5.09144 0,1.11907 -0.26315,1.87304 -0.91036,2.6083 -1.07256,1.21849 -2.91466,1.89398 -5.16305,1.89325 -4.36309,-10e-4 -7.47966,-2.47897 -8.26202,-6.568 -0.11592,-0.60587 -0.21077,-1.48854 -0.21077,-1.96151 v -0.85994 l -1.08721,-0.16856 c -0.59797,-0.0927 -1.12928,-0.12156 -1.18068,-0.0641 -0.0514,0.0574 -0.51115,2.50006 -1.02165,5.42804 -0.51051,2.92799 -0.96501,5.47544 -1.01001,5.66102 -0.079,0.32582 -0.0465,0.33703 0.94667,0.32627 l 1.02849,-0.0111 1.09397,-1.2524 1.09398,-1.25239 0.98327,0.74423 c 2.4196,1.83139 4.47822,2.41617 8.15082,2.31534 1.52344,-0.0418 2.54374,-0.15198 3.40799,-0.36794 z m 53.05823,0.20256 c 1.96009,-0.51041 3.29812,-1.73011 4.43205,-4.04009 0.40459,-0.82421 0.73561,-1.61798 0.73561,-1.76393 0,-0.17819 -0.27709,-0.38792 -0.84344,-0.63839 -0.4639,-0.20516 -0.88601,-0.37301 -0.93802,-0.37301 -0.052,0 -0.2571,0.42176 -0.45574,0.93725 -0.45737,1.18685 -0.9065,1.90451 -1.50939,2.41181 -0.5685,0.47836 -1.05584,0.51021 -1.43283,0.0937 -0.24374,-0.26933 -0.2893,-0.69012 -0.37746,-3.48659 -0.11093,-3.51806 -0.20385,-3.95167 -1.13963,-5.31851 -0.63261,-0.924 -1.68818,-1.74199 -2.8653,-2.22041 l -0.83986,-0.34134 0.51456,-0.0837 c 3.34645,-0.54404 4.78159,-0.95462 6.50826,-1.86195 2.74723,-1.44363 4.18431,-4.14787 3.71364,-6.98823 -0.47065,-2.84034 -2.09542,-4.42695 -5.30077,-5.17633 -2.24395,-0.52461 -3.95583,-0.60978 -12.25691,-0.60978 h -8.0871 l -0.0841,0.48737 c -0.0463,0.26806 -0.12892,0.80792 -0.18368,1.19969 l -0.0996,0.71231 1.40418,0.008 c 0.77228,0.005 1.64034,0.089 1.92902,0.18745 0.45105,0.15382 0.53074,0.2528 0.56667,0.70385 0.0458,0.57469 -5.49673,21.63922 -5.90415,22.43899 -0.32012,0.62838 -0.80064,0.82308 -2.26332,0.91708 l -1.22747,0.0789 -0.0847,0.57931 c -0.0466,0.31862 -0.12438,0.84924 -0.17286,1.17915 l -0.0882,0.59985 h 7.57016 c 6.61865,0 7.5811,-0.0285 7.65719,-0.22683 0.0479,-0.12475 0.13114,-0.65725 0.18505,-1.18333 l 0.098,-0.9565 -1.79557,-0.0539 c -2.2186,-0.0665 -2.35007,-0.14352 -2.25819,-1.32246 0.0356,-0.45696 0.62972,-2.94697 1.32021,-5.53336 l 1.25548,-4.70252 1.44466,0.058 c 1.84305,0.074 2.72128,0.46998 3.24684,1.46385 0.43003,0.81319 0.44588,1.61122 0.0965,4.85929 -0.29202,2.71467 -0.18253,3.89871 0.48172,5.20954 0.68388,1.34959 2.12371,2.47011 3.63023,2.82517 0.90383,0.21302 2.45336,0.18132 3.41821,-0.0699 z m 50.5251,-0.17966 c 0.3919,-1.58769 5.31184,-19.87366 5.79999,-21.55686 0.81114,-2.79685 1.18168,-3.55073 2.10322,-4.27916 0.77047,-0.60902 1.92202,-1.04445 2.7622,-1.04445 0.48169,0 0.48317,-0.002 0.58342,-0.93725 0.0553,-0.51549 0.13393,-1.05535 0.17478,-1.19969 0.0698,-0.24663 -0.26837,-0.26243 -5.61684,-0.26243 h -5.69115 l -0.10719,1.00088 c -0.0589,0.55048 -0.1415,1.09034 -0.18346,1.19968 -0.0563,0.14665 0.0978,0.19881 0.58735,0.19881 1.03679,0 2.14155,0.39106 2.58135,0.91374 0.6369,0.75693 0.54446,1.72407 -0.56544,5.9152 -2.25004,8.49654 -2.86052,10.69518 -2.95364,10.63763 -0.0544,-0.0336 -2.45314,-4.51718 -5.3306,-9.96352 l -5.23174,-9.90242 h -5.12913 c -2.82103,0 -5.1592,0.0506 -5.19594,0.11247 -0.0368,0.0619 -0.11447,0.59576 -0.17271,1.18644 l -0.10587,1.07397 1.72799,0.0507 c 1.45873,0.0428 1.7921,0.0987 2.13924,0.35818 0.22617,0.1691 0.47702,0.41176 0.55745,0.53924 0.10535,0.16702 -0.50889,2.65862 -2.19778,8.91515 -2.46659,9.13747 -3.10989,11.34824 -3.55221,12.20742 -0.59394,1.1537 -1.961,2.02655 -3.4502,2.20292 -0.41471,0.0491 -0.77814,0.13028 -0.80761,0.18037 -0.0295,0.0501 -0.10184,0.58031 -0.1608,1.17828 l -0.10722,1.08721 h 5.77202 5.77202 l 0.0841,-0.48737 c 0.0463,-0.26805 0.12892,-0.80791 0.18368,-1.19969 l 0.0996,-0.71231 h -0.81461 c -1.07316,0 -2.22634,-0.35408 -2.66141,-0.81718 -0.49664,-0.52865 -0.54796,-1.50685 -0.16955,-3.23176 0.39064,-1.78061 3.92502,-15.03296 4.04761,-15.1767 0.0496,-0.0581 2.71771,4.91872 5.92924,11.05961 l 5.83913,11.16525 h 1.67947 1.67947 z m -163.1578,-1.04972 c 0.0569,-0.47425 0.13943,-1.01411 0.1835,-1.19969 0.0793,-0.33379 0.063,-0.33741 -1.51554,-0.33741 -2.03913,0 -2.63576,-0.21165 -2.63576,-0.93503 0,-0.41915 1.03835,-4.58609 2.03272,-8.1574 l 0.25603,-0.91958 3.76684,-0.0766 c 3.94243,-0.0802 5.63539,-0.27753 7.44088,-0.86741 3.11058,-1.01628 5.25626,-3.19922 5.92262,-6.0255 1.0322,-4.37794 -1.25747,-8.10975 -5.6227,-9.16415 -1.82247,-0.44021 -4.07121,-0.54735 -11.48788,-0.54735 -7.11177,0 -7.40718,0.0111 -7.40718,0.27792 0,0.15286 -0.0424,0.68349 -0.0942,1.17918 l -0.0942,0.90125 1.61837,0.072 c 1.47445,0.0656 1.64384,0.10342 1.90475,0.42563 0.20515,0.25335 0.26141,0.48672 0.19837,0.82278 -0.1832,0.97651 -5.78157,21.69683 -5.96642,22.08251 -0.27102,0.56544 -0.85545,0.79918 -2.23465,0.89371 -0.65432,0.0448 -1.21573,0.12371 -1.24758,0.17525 -0.0318,0.0515 -0.10599,0.58161 -0.16475,1.17794 l -0.10684,1.08424 h 7.57512 7.57511 z m 21.12637,0.3749 c 0.0463,-0.26805 0.12892,-0.80791 0.18368,-1.19969 l 0.0996,-0.71231 -0.95428,-9e-4 c -1.21825,-10e-4 -2.01899,-0.22545 -2.49179,-0.69825 -0.59227,-0.59227 -0.39788,-1.37841 0.9186,-3.71514 l 1.10375,-1.95911 4.56666,-0.0396 4.56667,-0.0396 0.50168,2.69013 c 0.4746,2.54496 0.48828,2.71057 0.2535,3.06888 -0.31751,0.48458 -1.07355,0.69167 -2.52905,0.69272 -0.63434,4.5e-4 -1.18546,0.0528 -1.2247,0.11628 -0.0392,0.0635 -0.11943,0.60336 -0.17819,1.19969 l -0.10683,1.0843 h 7.57832 7.57832 l 0.097,-0.78729 c 0.0533,-0.43301 0.13252,-0.97287 0.17595,-1.19969 l 0.079,-0.41239 -0.94917,-9e-4 c -1.84546,-0.002 -2.78614,-0.54674 -3.12769,-1.81249 -0.15124,-0.56038 -5.3945,-25.27413 -5.3945,-25.42651 0,-0.0291 -0.59072,-0.053 -1.3127,-0.053 h -1.31271 l -7.27255,12.10217 c -6.22774,10.36351 -7.42015,12.2588 -8.29991,13.1924 -1.15275,1.22329 -2.47384,1.99829 -3.40636,1.99829 h -0.56182 l -0.097,0.78729 c -0.0533,0.43302 -0.13252,0.97287 -0.17595,1.19969 l -0.079,0.41239 h 5.8437 5.8437 z m 62.69841,-0.22494 c 0.0548,-0.39177 0.13743,-0.93163 0.18369,-1.19969 l 0.0841,-0.48737 -1.40383,-9e-4 c -1.79584,-10e-4 -2.49425,-0.18527 -2.62127,-0.69134 -0.11532,-0.45947 -0.25244,0.0928 3.08633,-12.42939 2.20877,-8.28409 2.78472,-10.26383 3.06974,-10.55176 0.3924,-0.39641 1.24105,-0.60404 2.50874,-0.61379 l 0.84909,-0.007 0.0882,-0.59985 c 0.0485,-0.32991 0.12785,-0.86977 0.17633,-1.19968 l 0.0882,-0.59985 h -7.56995 -7.56994 l -0.0801,0.33742 c -0.044,0.18557 -0.12569,0.71793 -0.1814,1.18302 l -0.1013,0.8456 1.73654,0.0551 c 1.53533,0.0487 1.77394,0.0925 2.05909,0.37766 0.31569,0.31568 0.31761,0.3443 0.0905,1.34867 -0.57328,2.53512 -5.69543,21.45576 -5.88891,21.75295 -0.33842,0.51986 -0.73519,0.65685 -2.17207,0.74994 -1.50185,0.0973 -1.41203,0.0113 -1.57216,1.50475 l -0.10049,0.93726 h 7.57072 7.57071 l 0.0996,-0.71232 z m 49.94024,-0.14996 c 0.0569,-0.47425 0.13944,-1.01411 0.1835,-1.19969 0.0789,-0.3321 0.0568,-0.33754 -1.39825,-0.34587 -1.92892,-0.0111 -2.51227,-0.20275 -2.57451,-0.84604 -0.0272,-0.28066 1.17251,-5.03908 2.89226,-11.472 2.39931,-8.97487 3.00334,-11.05745 3.29099,-11.34683 0.39404,-0.3964 1.24291,-0.60404 2.50933,-0.61379 l 0.84819,-0.007 0.097,-0.78729 c 0.0533,-0.43302 0.13252,-0.97288 0.17594,-1.19969 l 0.079,-0.41239 h -7.56867 -7.56869 l -0.0863,0.34367 c -0.0474,0.18903 -0.13049,0.72008 -0.18455,1.18012 l -0.0983,0.83643 1.76464,0.0675 c 1.60444,0.0614 1.78937,0.0981 2.03714,0.40408 0.19117,0.23608 0.24731,0.47917 0.18811,0.81431 -0.25655,1.45213 -5.81885,21.98271 -6.04089,22.29705 -0.32043,0.45368 -1.23186,0.72106 -2.51475,0.73774 -0.51061,0.007 -0.95847,0.0627 -0.99521,0.12454 -0.0368,0.0619 -0.11507,0.60172 -0.17403,1.19968 l -0.10722,1.08722 h 7.57096 7.57097 l 0.10336,-0.86227 z m 51.12147,0.74683 c 0.0392,-0.0635 0.11862,-0.59519 0.1764,-1.18154 l 0.10505,-1.06609 -1.4997,-0.0602 c -1.89499,-0.0761 -2.05044,-0.18202 -1.93944,-1.32137 0.0444,-0.45602 0.38789,-1.96987 0.76324,-3.36412 0.75244,-2.79499 0.63745,-2.60231 2.65426,-4.4478 l 1.28821,-1.17879 2.20867,4.6442 c 1.29722,2.72766 2.18896,4.78145 2.16089,4.9768 -0.0745,0.51847 -0.65913,0.71038 -2.17154,0.71281 l -1.37396,0.002 -0.0882,0.59985 c -0.0485,0.32991 -0.12784,0.86977 -0.17632,1.19968 l -0.0882,0.59985 h 7.57016 c 6.61865,0 7.5811,-0.0285 7.65719,-0.22683 0.0479,-0.12475 0.13191,-0.66461 0.18672,-1.19969 l 0.0997,-0.97286 -1.18291,-0.003 c -1.57438,-0.004 -2.2586,-0.31359 -2.85644,-1.2908 -0.80564,-1.31693 -6.55213,-13.85953 -6.41035,-13.99161 3.38855,-3.15685 7.21345,-6.64749 7.78397,-7.10374 1.18104,-0.94448 2.68528,-1.59045 4.17741,-1.79392 1.02646,-0.13997 1.29615,-0.22766 1.29615,-0.42144 0,-0.13458 0.0434,-0.65949 0.0964,-1.16646 l 0.0963,-0.92176 h -6.08006 -6.08004 l -0.1005,0.93725 c -0.0553,0.51549 -0.13393,1.05535 -0.17478,1.19969 -0.0664,0.23447 0.0553,0.26243 1.14231,0.26243 1.09176,0 1.25438,0.0378 1.5847,0.36809 0.46114,0.46115 0.45916,0.51434 -0.0443,1.19256 -0.4003,0.53923 -11.01466,10.45617 -11.10008,10.37075 -0.0376,-0.0376 1.57248,-6.0692 2.60376,-9.75397 0.2073,-0.74066 0.48123,-1.46194 0.60875,-1.60285 0.29534,-0.32633 1.44736,-0.57457 2.66654,-0.57457 h 0.95009 l 0.10337,-0.86227 c 0.0569,-0.47425 0.13943,-1.01411 0.18349,-1.19969 l 0.0801,-0.33741 h -7.64722 -7.64723 l -0.0996,0.71231 c -0.0548,0.39178 -0.13742,0.93163 -0.18368,1.19969 l -0.0841,0.48737 1.40383,0.008 c 0.7721,0.005 1.64001,0.0902 1.92869,0.19011 0.51798,0.17926 0.52459,0.19241 0.50439,1.00377 -0.0113,0.45217 -0.22653,1.56443 -0.4784,2.4717 -0.25186,0.90726 -1.51522,5.63102 -2.80746,10.49725 -1.29225,4.86623 -2.4467,9.03616 -2.56549,9.26652 -0.27798,0.53914 -0.73925,0.7055 -2.25209,0.81226 l -1.22958,0.0868 -0.0845,0.57824 c -0.0465,0.31803 -0.1242,0.84817 -0.17268,1.17808 l -0.0882,0.59985 h 7.27743 c 4.00259,0 7.30954,-0.0519 7.34878,-0.11545 z"
       id="path4663"
       inkscape:connector-curvature="0"
       transform="matrix(0.26458333,0,0,0.26458333,0,-7.8000069)" />
    <path
       style="fill:#1a1a1a;fill-opacity:1;stroke:#ff0000;stroke-width:0.08143741;stroke-miterlimit:4;stroke-dasharray:none;stroke-opacity:1"
       d="M 531.85572,721.5452 423.90874,721.32663 V 530.88509 340.44356 H 714.02951 1004.1503 V 530.88833 721.3331 H 874.05341 743.95655 l -0.42516,-4.02945 c -0.23384,-2.21621 -0.19158,-7.25231 0.0939,-11.19135 l 0.51908,-7.16189 7.14303,-1.18503 c 3.92867,-0.65177 8.01182,-1.51535 9.07366,-1.91906 2.59996,-0.9885 3.25088,-4.95904 2.09707,-12.79191 -0.50697,-3.44157 -2.06779,-22.09951 -3.46852,-41.46211 -2.76399,-38.20753 -4.29919,-55.9383 -6.8308,-78.89248 -0.9005,-8.16495 -1.64062,-16.80054 -1.64471,-19.1902 -0.008,-4.4335 3.62907,-20.4145 4.945,-21.73042 0.40314,-0.40314 1.33445,1.27362 2.09237,3.76716 1.34949,4.43976 6.40024,18.76868 9.80692,27.82209 0.9656,2.56612 1.7681,5.90633 1.78332,7.42268 0.0272,2.71111 0.0948,2.75798 4.05715,2.81662 5.03908,0.0746 6.39936,0.62696 8.66576,3.51907 l 1.80728,2.30623 -1.66015,3.20776 c -3.28289,6.34324 -3.68783,7.68197 -3.11396,10.29479 0.31681,1.44241 1.65546,3.77812 2.97477,5.19045 2.64692,2.83353 6.1789,3.32206 12.10981,1.67496 l 3.18115,-0.88345 -0.16856,-6.53449 -0.16855,-6.53451 -0.29134,6.0797 c -0.28466,5.94041 -0.35173,6.10074 -2.9271,6.99852 -1.44968,0.50537 -4.2012,0.87394 -6.11448,0.81906 l -3.47872,-0.0998 4.11436,-0.69035 c 2.2629,-0.37969 4.64876,-0.89542 5.30192,-1.14605 1.81961,-0.69826 1.56191,-14.5674 -0.42665,-22.9616 -0.88781,-3.74766 -2.2548,-9.86783 -3.03774,-13.60038 -0.78295,-3.73255 -4.25243,-16.71163 -7.70996,-28.84242 -3.45754,-12.13078 -7.06647,-25.68247 -8.01985,-30.11487 -2.42557,-11.27678 -3.26767,-13.66722 -5.75263,-16.3299 -1.19743,-1.28306 -1.79053,-2.33284 -1.31801,-2.33284 0.47253,0 1.7273,0.92411 2.78838,2.05358 1.40244,1.49282 2.81331,5.72026 5.16683,15.48159 1.78068,7.38541 5.72281,22.02175 8.76029,32.52521 3.03749,10.50346 6.17153,22.5282 6.96454,26.72165 0.79301,4.19345 2.01641,9.53314 2.71864,11.86598 0.70225,2.33285 1.55829,6.34109 1.90234,8.90722 0.57842,4.31429 0.6339,4.40491 0.73675,1.20325 0.0612,-1.90435 -0.60076,-5.9126 -1.47096,-8.90722 -0.87021,-2.99463 -2.23427,-8.87578 -3.03125,-13.06923 -0.79698,-4.19345 -3.93412,-16.21819 -6.97143,-26.72165 -3.03731,-10.50346 -6.82819,-24.6324 -8.42421,-31.39764 -1.596,-6.76524 -3.51176,-13.50155 -4.25723,-14.96957 -1.72493,-3.39681 -7.3304,-6.46629 -16.05379,-8.79084 -9.16759,-2.4429 -17.36473,-5.12202 -17.36473,-5.67541 0,-0.2503 1.12915,-1.74111 2.50922,-3.31293 3.24433,-3.69508 4.43139,-8.28857 4.58064,-17.72548 0.11147,-7.04868 -0.085,-8.02547 -2.55944,-12.72459 -5.07415,-9.63608 -12.05679,-14.2307 -22.34485,-14.70306 l -6.3623,-0.29212 -7.2106,7.84862 c -3.96584,4.31674 -7.40148,8.3379 -7.63476,8.93592 -0.29898,0.7664 -8.56056,-2.48788 -27.99411,-11.02705 -36.9075,-16.21727 -40.32282,-17.94533 -42.38943,-21.44796 -1.97394,-3.3456 -2.96001,-3.77821 -14.08084,-6.17767 -8.75759,-1.88956 -20.00363,-6.46838 -37.99727,-15.47059 -13.1744,-6.59115 -18.39371,-10.13499 -21.69313,-14.72936 -1.4892,-2.07367 -3.20504,-3.77031 -3.81299,-3.77031 -3.72388,0 -9.09325,9.39182 -8.86912,15.51341 0.0794,2.16896 0.24062,1.88582 0.78984,-1.3872 1.10548,-6.58795 1.66627,-5.62592 1.08845,1.86718 l -0.53292,6.91088 h 9.93866 9.93866 l 17.54495,7.11773 c 21.99483,8.92298 26.93629,11.11775 27.65707,12.284 0.31557,0.51062 3.46011,10.9556 6.98784,23.21106 l 6.41406,22.28264 0.43448,12.93588 0.43448,12.93588 5.27744,4.93678 c 6.29055,5.88451 15.87884,12.41054 20.76891,14.13586 1.9386,0.68398 7.79978,1.68735 13.02487,2.22972 5.22508,0.54236 10.26362,1.2917 11.19676,1.66519 l 1.69661,0.67908 -1.69661,0.0668 c -1.02807,0.0405 -1.32407,0.31234 -0.75118,0.68999 1.97878,1.30443 7.96178,33.02494 7.96178,42.21151 0,2.59326 -0.61056,9.72296 -1.3568,15.84378 -1.05791,8.67718 -1.27299,16.47145 -0.97635,35.3815 l 0.38046,24.25273 6.91449,46.55402 c 3.80297,25.60472 6.91449,46.85028 6.91449,47.21237 0,0.36207 1.45585,0.46305 3.2352,0.22439 2.22967,-0.29906 5.39362,0.29693 10.17968,1.91756 l 6.94447,2.35149 -0.0115,3.04092 c -0.007,1.67252 -0.24176,3.89984 -0.5231,4.94962 l -0.5115,1.90869 -36.16616,-0.20881 c -19.89142,-0.11485 -84.74234,-0.30718 -144.11318,-0.4274 z m 136.7894,-226.42755 c -7.47783,-0.61873 -16.81144,-2.14928 -20.02858,-3.28436 -4.46198,-1.57428 -13.80427,-7.8854 -20.75267,-14.01932 l -5.55973,-4.90803 -0.23617,-12.57582 c -0.23357,-12.43722 -0.2895,-12.7628 -5.07559,-29.54194 -2.66168,-9.33137 -5.82078,-19.96549 -7.02022,-23.63137 l -2.1808,-6.66525 -4.77784,-2.12277 c -2.6278,-1.16752 -12.60345,-5.28546 -22.16811,-9.15098 l -17.39028,-7.02822 -10.33374,0.4487 -10.33375,0.4487 -0.37122,-3.29521 -0.37124,-3.2952 0.10115,3.39322 0.10115,3.39323 12.30044,0.42415 12.30044,0.42415 19.08689,7.93305 c 10.49779,4.36317 19.54372,8.11815 20.10206,8.34439 1.22881,0.49792 3.71499,7.97099 10.10677,30.37941 4.81039,16.86439 4.84071,17.04243 5.05573,29.69072 l 0.21633,12.7246 6.87474,5.99008 c 10.34878,9.01708 18.54018,13.6418 26.78134,15.12028 3.73255,0.66963 9.07688,1.18759 11.87629,1.15103 3.23077,-0.0422 3.85046,-0.16903 1.69661,-0.34724 z"
       id="path4665"
       inkscape:connector-curvature="0"
       transform="matrix(0.26458333,0,0,0.26458333,0,-7.8000069)" />
    <path
       style="fill:#1a1a1a;fill-opacity:1;stroke:#ff0000;stroke-width:0.08143741;stroke-miterlimit:4;stroke-dasharray:none;stroke-opacity:1"
       d="m 694.09431,461.29414 c -0.46657,-0.1672 -7.10155,-0.90579 -14.74441,-1.64131 -22.83219,-2.19729 -24.07968,-2.70673 -32.89261,-13.43249 -3.14039,-3.822 -8.05935,-9.43039 -10.93101,-12.46309 -2.87167,-3.03269 -5.93128,-6.85007 -6.79914,-8.48306 -1.83996,-3.46214 -2.24517,-12.89193 -0.62366,-14.51344 1.15122,-1.15123 3.19988,-0.38269 45.32856,17.00468 l 25.10688,10.36211 0.50124,4.23217 c 0.3525,2.97632 1.51807,5.75489 3.92791,9.36366 3.48591,5.22018 4.27453,8.12342 2.3663,8.71132 -1.72704,0.53208 -10.32008,1.18913 -11.24006,0.85945 z"
       id="path4667"
       inkscape:connector-curvature="0"
       transform="matrix(0.26458333,0,0,0.26458333,0,-7.8000069)" />
    <path
       style="fill:#1a1a1a;fill-opacity:1;stroke:#ff0000;stroke-width:0.0407187;stroke-miterlimit:4;stroke-dasharray:none;stroke-opacity:1"
       d="m 499.92226,844.10423 c 0.003,-0.17496 0.483,-2.03593 1.0669,-4.13549 0.5839,-2.09956 1.25149,-4.51292 1.48352,-5.36304 0.49409,-1.81016 1.8288,-2.35821 3.9989,-1.64202 4.20767,1.38866 2.48167,9.70955 -2.28895,11.03483 -1.784,0.4956 -4.26785,0.55724 -4.26037,0.10572 z"
       id="path4669"
       inkscape:connector-curvature="0"
       transform="matrix(0.26458333,0,0,0.26458333,0,-7.8000069)" />
    <path
       style="fill:#1a1a1a;fill-opacity:1;stroke:#ff0000;stroke-width:0.0407187;stroke-miterlimit:4;stroke-dasharray:none;stroke-opacity:1"
       d="m 524.84286,843.72235 c 2.6947,-4.62683 2.65575,-4.63545 3.64262,0.80604 l 0.59616,3.28718 h -3.31134 -3.31135 z"
       id="path4671"
       inkscape:connector-curvature="0"
       transform="matrix(0.26458333,0,0,0.26458333,0,-7.8000069)" />
    <path
       style="fill:#1a1a1a;fill-opacity:1;stroke:#ff0000;stroke-width:0.0407187;stroke-miterlimit:4;stroke-dasharray:none;stroke-opacity:1"
       d="m 602.1379,842.27373 c 0,-0.24861 0.51161,-2.35987 1.1369,-4.69171 1.27571,-4.75739 1.74841,-5.268 4.45371,-4.81094 2.41191,0.40749 3.31661,1.46053 3.31661,3.86041 0,2.43621 -1.1908,4.4851 -3.1459,5.41286 -1.61681,0.76723 -5.76132,0.93223 -5.76132,0.22938 z"
       id="path4673"
       inkscape:connector-curvature="0"
       transform="matrix(0.26458333,0,0,0.26458333,0,-7.8000069)" />
    <path
       style="fill:#1a1a1a;fill-opacity:1;stroke:#ff0000;stroke-width:0.0407187;stroke-miterlimit:4;stroke-dasharray:none;stroke-opacity:1"
       d="m 759.50469,845.40685 c 0.74767,-1.3248 1.88096,-3.24668 2.51841,-4.27084 l 1.15901,-1.86211 0.47909,2.89234 c 0.2635,1.59079 0.60382,3.51266 0.75625,4.27084 l 0.27715,1.37849 h -3.27465 -3.27466 z"
       id="path4675"
       inkscape:connector-curvature="0"
       transform="matrix(0.26458333,0,0,0.26458333,0,-7.8000069)" />
    <path
       style="fill:#1a1a1a;fill-opacity:1;stroke:#ff0000;stroke-width:0.0407187;stroke-miterlimit:4;stroke-dasharray:none;stroke-opacity:1"
       d="m 931.64954,847.07073 c 0.50442,-0.94251 4.35471,-7.48512 4.49985,-7.64638 0.11845,-0.1316 1.49367,7.16206 1.49367,7.92183 0,0.30156 -1.14276,0.46939 -3.19607,0.46939 -2.91666,0 -3.16123,-0.0651 -2.79745,-0.74484 z"
       id="path4679"
       inkscape:connector-curvature="0"
       transform="matrix(0.26458333,0,0,0.26458333,0,-7.8000069)" />
    <path
       style="fill:#000000;fill-opacity:1;stroke:#0000ff;stroke-width:0.00508984;stroke-miterlimit:4;stroke-dasharray:none;stroke-opacity:1"
       d="m 621.88351,722.06896 -23.05007,-0.0134 v -0.13249 -0.13249 l 5.34168,3.2e-4 c 8.55331,5.1e-4 61.3725,0.18846 73.47128,0.26144 4.29569,0.0259 0.0824,0.0368 -13.20177,0.034 -10.73107,-0.002 -29.88358,-0.0101 -42.56112,-0.0174 z"
       id="path4683"
       inkscape:connector-curvature="0"
       transform="matrix(0.26458333,0,0,0.26458333,0,-7.8000069)" />
  </g>
</svg>
