G04 #@! TF.GenerationSoftware,KiCad,Pcbnew,5.0.0*
G04 #@! TF.CreationDate,2018-09-21T14:36:45-04:00*
G04 #@! TF.ProjectId,v1,76312E6B696361645F70636200000000,rev?*
G04 #@! TF.SameCoordinates,Original*
G04 #@! TF.FileFunction,Legend,Bot*
G04 #@! TF.FilePolarity,Positive*
%FSLAX46Y46*%
G04 Gerber Fmt 4.6, Leading zero omitted, Abs format (unit mm)*
G04 Created by KiCad (PCBNEW 5.0.0) date Fri Sep 21 14:36:45 2018*
%MOMM*%
%LPD*%
G01*
G04 APERTURE LIST*
%ADD10C,0.225000*%
%ADD11C,0.200000*%
%ADD12C,0.150000*%
%ADD13R,1.801600X1.801600*%
%ADD14O,1.801600X1.801600*%
%ADD15C,8.101600*%
%ADD16C,2.641600*%
%ADD17C,0.100000*%
%ADD18C,2.301600*%
G04 APERTURE END LIST*
D10*
X194519228Y-116521714D02*
X194390657Y-116564571D01*
X194347800Y-116607428D01*
X194304942Y-116693142D01*
X194304942Y-116821714D01*
X194347800Y-116907428D01*
X194390657Y-116950285D01*
X194476371Y-116993142D01*
X194819228Y-116993142D01*
X194819228Y-116093142D01*
X194519228Y-116093142D01*
X194433514Y-116136000D01*
X194390657Y-116178857D01*
X194347800Y-116264571D01*
X194347800Y-116350285D01*
X194390657Y-116436000D01*
X194433514Y-116478857D01*
X194519228Y-116521714D01*
X194819228Y-116521714D01*
X193576371Y-116950285D02*
X193662085Y-116993142D01*
X193833514Y-116993142D01*
X193919228Y-116950285D01*
X193962085Y-116864571D01*
X193962085Y-116521714D01*
X193919228Y-116436000D01*
X193833514Y-116393142D01*
X193662085Y-116393142D01*
X193576371Y-116436000D01*
X193533514Y-116521714D01*
X193533514Y-116607428D01*
X193962085Y-116693142D01*
X193147800Y-116393142D02*
X193147800Y-116993142D01*
X193147800Y-116478857D02*
X193104942Y-116436000D01*
X193019228Y-116393142D01*
X192890657Y-116393142D01*
X192804942Y-116436000D01*
X192762085Y-116521714D01*
X192762085Y-116993142D01*
X192333514Y-116393142D02*
X192333514Y-117164571D01*
X192376371Y-117250285D01*
X192462085Y-117293142D01*
X192504942Y-117293142D01*
X192333514Y-116093142D02*
X192376371Y-116136000D01*
X192333514Y-116178857D01*
X192290657Y-116136000D01*
X192333514Y-116093142D01*
X192333514Y-116178857D01*
X191519228Y-116993142D02*
X191519228Y-116521714D01*
X191562085Y-116436000D01*
X191647800Y-116393142D01*
X191819228Y-116393142D01*
X191904942Y-116436000D01*
X191519228Y-116950285D02*
X191604942Y-116993142D01*
X191819228Y-116993142D01*
X191904942Y-116950285D01*
X191947800Y-116864571D01*
X191947800Y-116778857D01*
X191904942Y-116693142D01*
X191819228Y-116650285D01*
X191604942Y-116650285D01*
X191519228Y-116607428D01*
X191090657Y-116993142D02*
X191090657Y-116393142D01*
X191090657Y-116478857D02*
X191047800Y-116436000D01*
X190962085Y-116393142D01*
X190833514Y-116393142D01*
X190747800Y-116436000D01*
X190704942Y-116521714D01*
X190704942Y-116993142D01*
X190704942Y-116521714D02*
X190662085Y-116436000D01*
X190576371Y-116393142D01*
X190447800Y-116393142D01*
X190362085Y-116436000D01*
X190319228Y-116521714D01*
X190319228Y-116993142D01*
X189890657Y-116993142D02*
X189890657Y-116393142D01*
X189890657Y-116093142D02*
X189933514Y-116136000D01*
X189890657Y-116178857D01*
X189847800Y-116136000D01*
X189890657Y-116093142D01*
X189890657Y-116178857D01*
X189462085Y-116393142D02*
X189462085Y-116993142D01*
X189462085Y-116478857D02*
X189419228Y-116436000D01*
X189333514Y-116393142D01*
X189204942Y-116393142D01*
X189119228Y-116436000D01*
X189076371Y-116521714D01*
X189076371Y-116993142D01*
X190305357Y-117753614D02*
X190176785Y-117796471D01*
X190133928Y-117839328D01*
X190091071Y-117925042D01*
X190091071Y-118053614D01*
X190133928Y-118139328D01*
X190176785Y-118182185D01*
X190262500Y-118225042D01*
X190605357Y-118225042D01*
X190605357Y-117325042D01*
X190305357Y-117325042D01*
X190219642Y-117367900D01*
X190176785Y-117410757D01*
X190133928Y-117496471D01*
X190133928Y-117582185D01*
X190176785Y-117667900D01*
X190219642Y-117710757D01*
X190305357Y-117753614D01*
X190605357Y-117753614D01*
X189705357Y-118225042D02*
X189705357Y-117625042D01*
X189705357Y-117796471D02*
X189662500Y-117710757D01*
X189619642Y-117667900D01*
X189533928Y-117625042D01*
X189448214Y-117625042D01*
X189019642Y-118225042D02*
X189105357Y-118182185D01*
X189148214Y-118139328D01*
X189191071Y-118053614D01*
X189191071Y-117796471D01*
X189148214Y-117710757D01*
X189105357Y-117667900D01*
X189019642Y-117625042D01*
X188891071Y-117625042D01*
X188805357Y-117667900D01*
X188762500Y-117710757D01*
X188719642Y-117796471D01*
X188719642Y-118053614D01*
X188762500Y-118139328D01*
X188805357Y-118182185D01*
X188891071Y-118225042D01*
X189019642Y-118225042D01*
X187948214Y-118182185D02*
X188033928Y-118225042D01*
X188205357Y-118225042D01*
X188291071Y-118182185D01*
X188333928Y-118139328D01*
X188376785Y-118053614D01*
X188376785Y-117796471D01*
X188333928Y-117710757D01*
X188291071Y-117667900D01*
X188205357Y-117625042D01*
X188033928Y-117625042D01*
X187948214Y-117667900D01*
X187219642Y-118182185D02*
X187305357Y-118225042D01*
X187476785Y-118225042D01*
X187562500Y-118182185D01*
X187605357Y-118096471D01*
X187605357Y-117753614D01*
X187562500Y-117667900D01*
X187476785Y-117625042D01*
X187305357Y-117625042D01*
X187219642Y-117667900D01*
X187176785Y-117753614D01*
X187176785Y-117839328D01*
X187605357Y-117925042D01*
D11*
X203186866Y-116363704D02*
X203186866Y-115563704D01*
X202996390Y-115563704D01*
X202882104Y-115601800D01*
X202805914Y-115677990D01*
X202767819Y-115754180D01*
X202729723Y-115906561D01*
X202729723Y-116020847D01*
X202767819Y-116173228D01*
X202805914Y-116249419D01*
X202882104Y-116325609D01*
X202996390Y-116363704D01*
X203186866Y-116363704D01*
X202082104Y-116325609D02*
X202158295Y-116363704D01*
X202310676Y-116363704D01*
X202386866Y-116325609D01*
X202424961Y-116249419D01*
X202424961Y-115944657D01*
X202386866Y-115868466D01*
X202310676Y-115830371D01*
X202158295Y-115830371D01*
X202082104Y-115868466D01*
X202044009Y-115944657D01*
X202044009Y-116020847D01*
X202424961Y-116097038D01*
X201739247Y-116325609D02*
X201663057Y-116363704D01*
X201510676Y-116363704D01*
X201434485Y-116325609D01*
X201396390Y-116249419D01*
X201396390Y-116211323D01*
X201434485Y-116135133D01*
X201510676Y-116097038D01*
X201624961Y-116097038D01*
X201701152Y-116058942D01*
X201739247Y-115982752D01*
X201739247Y-115944657D01*
X201701152Y-115868466D01*
X201624961Y-115830371D01*
X201510676Y-115830371D01*
X201434485Y-115868466D01*
X201053533Y-116363704D02*
X201053533Y-115830371D01*
X201053533Y-115563704D02*
X201091628Y-115601800D01*
X201053533Y-115639895D01*
X201015438Y-115601800D01*
X201053533Y-115563704D01*
X201053533Y-115639895D01*
X200329723Y-115830371D02*
X200329723Y-116477990D01*
X200367819Y-116554180D01*
X200405914Y-116592276D01*
X200482104Y-116630371D01*
X200596390Y-116630371D01*
X200672580Y-116592276D01*
X200329723Y-116325609D02*
X200405914Y-116363704D01*
X200558295Y-116363704D01*
X200634485Y-116325609D01*
X200672580Y-116287514D01*
X200710676Y-116211323D01*
X200710676Y-115982752D01*
X200672580Y-115906561D01*
X200634485Y-115868466D01*
X200558295Y-115830371D01*
X200405914Y-115830371D01*
X200329723Y-115868466D01*
X199948771Y-115830371D02*
X199948771Y-116363704D01*
X199948771Y-115906561D02*
X199910676Y-115868466D01*
X199834485Y-115830371D01*
X199720200Y-115830371D01*
X199644009Y-115868466D01*
X199605914Y-115944657D01*
X199605914Y-116363704D01*
X198920200Y-116325609D02*
X198996390Y-116363704D01*
X199148771Y-116363704D01*
X199224961Y-116325609D01*
X199263057Y-116249419D01*
X199263057Y-115944657D01*
X199224961Y-115868466D01*
X199148771Y-115830371D01*
X198996390Y-115830371D01*
X198920200Y-115868466D01*
X198882104Y-115944657D01*
X198882104Y-116020847D01*
X199263057Y-116097038D01*
X198196390Y-116363704D02*
X198196390Y-115563704D01*
X198196390Y-116325609D02*
X198272580Y-116363704D01*
X198424961Y-116363704D01*
X198501152Y-116325609D01*
X198539247Y-116287514D01*
X198577342Y-116211323D01*
X198577342Y-115982752D01*
X198539247Y-115906561D01*
X198501152Y-115868466D01*
X198424961Y-115830371D01*
X198272580Y-115830371D01*
X198196390Y-115868466D01*
X197205914Y-116363704D02*
X197205914Y-115563704D01*
X197205914Y-115868466D02*
X197129723Y-115830371D01*
X196977342Y-115830371D01*
X196901152Y-115868466D01*
X196863057Y-115906561D01*
X196824961Y-115982752D01*
X196824961Y-116211323D01*
X196863057Y-116287514D01*
X196901152Y-116325609D01*
X196977342Y-116363704D01*
X197129723Y-116363704D01*
X197205914Y-116325609D01*
X196558295Y-115830371D02*
X196367819Y-116363704D01*
X196177342Y-115830371D02*
X196367819Y-116363704D01*
X196444009Y-116554180D01*
X196482104Y-116592276D01*
X196558295Y-116630371D01*
D12*
G04 #@! TO.C,BT1*
X185792831Y-125355774D02*
X183745425Y-128673862D01*
X198404389Y-118506254D02*
X202359727Y-118776464D01*
X185770404Y-125367699D02*
G75*
G02X189081923Y-123750770I2464224J-847295D01*
G01*
X195223329Y-120341490D02*
G75*
G02X198415602Y-118500291I2516736J-675537D01*
G01*
X195268183Y-120317641D02*
G75*
G02X189048282Y-123768656I-4835458J1384443D01*
G01*
X205623680Y-131136956D02*
X206652575Y-126850138D01*
X188038273Y-136747536D02*
X192167558Y-138291703D01*
X192167558Y-138291703D02*
X205623680Y-131136956D01*
X183745425Y-128673862D02*
X188038273Y-136747536D01*
X202359727Y-118776464D02*
X206652575Y-126850138D01*
X193661707Y-120353698D02*
X193726108Y-120373388D01*
X193874599Y-120348365D01*
X193958690Y-120303654D01*
X194062469Y-120194541D01*
X194101848Y-120065739D01*
X194099181Y-119959293D01*
X194051803Y-119768757D01*
X193984736Y-119642622D01*
X193853268Y-119496797D01*
X193766511Y-119435063D01*
X193637709Y-119395684D01*
X193489218Y-119420706D01*
X193405128Y-119465418D01*
X193301348Y-119574530D01*
X193281659Y-119638931D01*
X192823471Y-120907260D02*
X192894229Y-120330318D01*
X193328013Y-120638991D02*
X192858541Y-119756043D01*
X192522180Y-119934889D01*
X192460446Y-120021646D01*
X192440756Y-120086047D01*
X192443423Y-120192493D01*
X192510490Y-120318628D01*
X192597247Y-120380363D01*
X192661648Y-120400052D01*
X192768094Y-120397386D01*
X193104455Y-120218539D01*
X192062350Y-120287249D02*
X191997949Y-120267560D01*
X191891503Y-120270226D01*
X191681278Y-120382005D01*
X191619543Y-120468762D01*
X191599854Y-120533163D01*
X191602520Y-120639609D01*
X191647232Y-120723699D01*
X191756345Y-120827479D01*
X192529155Y-121063751D01*
X191982569Y-121354376D01*
X190966511Y-120762053D02*
X190882420Y-120806765D01*
X190820686Y-120893522D01*
X190800997Y-120957923D01*
X190803663Y-121064369D01*
X190851041Y-121254905D01*
X190962820Y-121465131D01*
X191094288Y-121610955D01*
X191181045Y-121672690D01*
X191245446Y-121692379D01*
X191351892Y-121689713D01*
X191435982Y-121645001D01*
X191497717Y-121558244D01*
X191517406Y-121493843D01*
X191514740Y-121387397D01*
X191467362Y-121196861D01*
X191355583Y-120986636D01*
X191224114Y-120840811D01*
X191137358Y-120779076D01*
X191072957Y-120759387D01*
X190966511Y-120762053D01*
X190377879Y-121075035D02*
X189831292Y-121365660D01*
X190304455Y-121545530D01*
X190178319Y-121612598D01*
X190116585Y-121699354D01*
X190096895Y-121763755D01*
X190099562Y-121870201D01*
X190211341Y-122080427D01*
X190298097Y-122142161D01*
X190362498Y-122161851D01*
X190468944Y-122159184D01*
X190721215Y-122025049D01*
X190782950Y-121938293D01*
X190802639Y-121873892D01*
X189539643Y-121628596D02*
X189475242Y-121608907D01*
X189368796Y-121611573D01*
X189158570Y-121723352D01*
X189096836Y-121810109D01*
X189077147Y-121874510D01*
X189079813Y-121980956D01*
X189124525Y-122065046D01*
X189233637Y-122168826D01*
X190006448Y-122405098D01*
X189459861Y-122695723D01*
G04 #@! TD*
%LPC*%
D13*
G04 #@! TO.C,J1*
X188849000Y-138620500D03*
D14*
X191389000Y-138620500D03*
X193929000Y-138620500D03*
X196469000Y-138620500D03*
X199009000Y-138620500D03*
X201549000Y-138620500D03*
G04 #@! TD*
D15*
G04 #@! TO.C,BT1*
X195199000Y-127762000D03*
D16*
X185106908Y-133128060D03*
D17*
G36*
X185157018Y-136035679D02*
X182724404Y-131460597D01*
X185056798Y-130220441D01*
X187489412Y-134795523D01*
X185157018Y-136035679D01*
X185157018Y-136035679D01*
G37*
D16*
X205291092Y-122395940D03*
D17*
G36*
X205341202Y-125303559D02*
X202908588Y-120728477D01*
X205240982Y-119488321D01*
X207673596Y-124063403D01*
X205341202Y-125303559D01*
X205341202Y-125303559D01*
G37*
G04 #@! TD*
D18*
G04 #@! TO.C,hole*
X205486000Y-138049000D03*
G04 #@! TD*
G04 #@! TO.C,hole*
X184912000Y-117475000D03*
G04 #@! TD*
G04 #@! TO.C,hole*
X184912000Y-138049000D03*
G04 #@! TD*
G04 #@! TO.C,hole*
X205486000Y-117475000D03*
G04 #@! TD*
M02*
